<?xml version="1.0" encoding="utf-8"?>
<!-- Generator: Adobe Illustrator 16.0.0, SVG Export Plug-In . SVG Version: 6.00 Build 0)  -->
<!DOCTYPE svg PUBLIC "-//W3C//DTD SVG 1.1//EN" "http://www.w3.org/Graphics/SVG/1.1/DTD/svg11.dtd">
<svg version="1.1" id="Layer_2" xmlns="http://www.w3.org/2000/svg" xmlns:xlink="http://www.w3.org/1999/xlink" x="0px" y="0px"
	 width="60px" height="60px" viewBox="0 0 60 60" enable-background="new 0 0 60 60" xml:space="preserve">
<path fill="#CCCCCC" d="M53.354,6.646c-8.861-8.862-23.24-8.862-32.103,0c-7.283,7.283-8.494,18.244-3.806,26.846L0,50.945L9.053,60
	l17.446-17.445c8.612,4.688,19.571,3.475,26.854-3.804C62.216,29.885,62.216,15.509,53.354,6.646z M48.066,33.469
	c-5.948,5.939-15.582,5.939-21.525,0c-5.948-5.951-5.947-15.585-0.004-21.531C32.484,6,42.121,6,48.062,11.938
	C54.009,17.884,54.009,27.518,48.066,33.469z"/>
</svg>
