<?xml version="1.0" standalone="no"?>
<!DOCTYPE svg PUBLIC "-//W3C//DTD SVG 1.1//EN" "http://www.w3.org/Graphics/SVG/1.1/DTD/svg11.dtd" >
<!--
2008-5-25: Created.
-->
<svg>
<metadata>
Created by FontForge 20120731 at Wed Jul  9 10:05:53 2014
 By Ville Vainio
Deveo
</metadata>
<defs>
<font id="deveo-icons" horiz-adv-x="1030" >
  <font-face 
    font-family="deveo-icons"
    font-weight="500"
    font-stretch="normal"
    units-per-em="1000"
    panose-1="2 0 6 3 0 0 0 0 0 0"
    ascent="800"
    descent="-200"
    bbox="14.9996 -200.066 1015.05 800.018"
    underline-thickness="50"
    underline-position="-100"
    unicode-range="U+0020-F0B8"
  />
    <missing-glyph />
    <glyph glyph-name="space" unicode=" " horiz-adv-x="300" 
 />
    <glyph glyph-name="accept-circle" unicode="&#xf021;" 
d="M515 800c276.134 0 500 -223.866 500 -500s-223.866 -500 -500 -500s-500 223.866 -500 500s223.866 500 500 500zM515 -150c248.517 0 450 201.45 450 450c0 248.533 -201.483 450 -450 450c-248.533 0 -450 -201.467 -450 -450c0 -248.517 201.467 -450 450 -450z
M329.25 348.2l122.45 -122.851l249.916 245.483l46.3506 -44.9834l-298.2 -296.683l-167.733 172.316z" />
    <glyph glyph-name="accept" unicode="&#xf022;" 
d="M116.35 403.45l262.784 -263.634l536.383 526.851l99.4834 -96.5332l-640 -636.801l-360 369.851z" />
    <glyph glyph-name="activity" unicode="&#xf023;" 
d="M790 666.667c0 -46.0166 -37.2998 -83.334 -83.333 -83.334h-608.334c-46.0166 0 -83.333 37.3174 -83.333 83.334s37.3164 83.333 83.333 83.333h608.334c46.0332 0 83.333 -37.3164 83.333 -83.333zM1015 300c0 -46.0332 -37.2998 -83.333 -83.333 -83.333h-833.334
c-46.0166 0 -83.333 37.2998 -83.333 83.333c0 46.0166 37.3164 83.333 83.333 83.333h833.334c46.0332 0 83.333 -37.3164 83.333 -83.333zM598.333 -66.667c0 -46.0332 -37.2998 -83.333 -83.333 -83.333h-416.667c-46.0166 0 -83.333 37.2998 -83.333 83.333
s37.3164 83.334 83.333 83.334h416.667c46.0332 0 83.333 -37.3008 83.333 -83.334z" />
    <glyph glyph-name="add" unicode="&#xf024;" 
d="M1015 216.667h-416.667v-416.667h-166.666v416.667h-416.667v166.666h416.667v416.667h166.666v-416.667h416.667v-166.666z" />
    <glyph glyph-name="api" unicode="&#xf025;" horiz-adv-x="863" 
d="M848.334 502.417l-0.0166016 -399.084l-239.117 -114.517c0.233398 -3.88281 0.583008 -7.7334 0.583008 -11.6826c0 -97.834 -79.75 -177.134 -178.133 -177.134c-98.3496 0 -178.134 79.2998 -178.134 177.134c0 3.94922 0.350586 7.7998 0.617188 11.6826
l-239.134 114.517v399.084l238.851 114.366c-0.0673828 2.0498 -0.317383 4.0498 -0.317383 6.11719c0 97.7998 79.7676 177.1 178.134 177.1s178.134 -79.2998 178.15 -177.116c0 -2.18359 -0.266602 -4.30078 -0.350586 -6.4502
c0.100586 0.0830078 0.133789 0.200195 0.233398 0.266602zM431.667 703.184c-44.5996 0 -80.7666 -35.9336 -80.7666 -80.2832c0 -44.3506 36.167 -80.3174 80.7666 -80.3174s80.7998 35.9834 80.7998 80.3174c0 44.333 -36.2002 80.2832 -80.7998 80.2832z
M431.667 -103.184c44.5996 0 80.7998 35.9668 80.7998 80.3174c0 44.3496 -36.2002 80.2832 -80.7998 80.2832s-80.7666 -35.9336 -80.7666 -80.2832c0 -44.3506 36.167 -80.3174 80.7666 -80.3174zM741.101 154.684v296.383l-159.367 76.3672
c-0.0166016 0.0664062 0 0.166016 -0.0166016 0.25c-31.6494 -49.2002 -86.9668 -81.917 -150.05 -81.917c-62.9834 0 -118.267 32.6172 -149.934 81.7002l-159.533 -76.4004v-296.383l162.333 -77.75c32.1006 46.6494 86 77.2998 147.134 77.2998
s115.033 -30.6504 147.134 -77.2998z" />
    <glyph glyph-name="app" unicode="&#xf026;" horiz-adv-x="897" 
d="M448.333 800l433.333 -250v-500l-433.333 -250l-433.333 250v500zM391.267 -66.2832v346.833l-290.017 167.367v-348zM145.866 524.017l290.066 -167.383l301.95 175.283l-288.967 166.75zM797.717 223.15c-25.584 12.333 -25.584 59.7666 0.0166016 105.966
c4.39941 7.9502 9.2832 15.2842 14.5332 21.9834c-6.41699 15.2334 -15.667 27.2002 -27.5166 35.667c-5.10059 -6.81641 -10.5674 -13.2168 -16.6006 -19c-34.9668 -33.7666 -70.9326 -33.7666 -80.2998 0c-1.56641 5.7002 -2.2168 12.0664 -2.13281 18.7168
c-18.2842 -8.4668 -36.4502 -20.4336 -54.2842 -35.5498c0.133789 -6.7998 -0.5 -14.1836 -2.14941 -22.167c-9.40039 -46.1162 -45.2998 -93.5664 -80.2832 -105.9c-5.9668 -2.14941 -11.5 -3 -16.6172 -2.93262c-5.64941 -11.6172 -11.0498 -23.5674 -15.6328 -35.7666
c-4.61719 -12.167 -8.33398 -24.1172 -11.4668 -35.7002c5.11621 0.0332031 9.93359 -0.816406 14.2334 -2.86719c25.6494 -12.3828 25.6162 -59.8496 0.0332031 -105.899c-4.4502 -8.0166 -9.31641 -15.2832 -14.5166 -21.9834
c6.2832 -15.2002 15.5 -27.2832 27.2002 -35.8164c5.06641 6.7832 10.5996 13.166 16.5166 18.9326c35.0166 33.7168 70.9492 33.7168 80.2998 0c1.66699 -5.83301 2.31641 -12.333 2.2168 -19.2334c18.2168 8.5 36.7002 20.5342 54.6328 35.8672
c-0.0332031 6.66699 0.567383 13.9834 2.16699 21.8662c9.36621 46.1338 45.2998 93.5508 80.2998 105.9c5.91699 2.13281 11.3672 2.9502 16.5 2.88281c5.7168 11.75 11.1006 23.7334 15.75 35.9834c4.7334 12.3506 8.4668 24.3672 11.6338 36.167
c-5.18359 -0.132812 -10.1006 0.733398 -14.5332 2.88379z" />
    <glyph glyph-name="around" unicode="&#xf027;" 
d="M956.5 -37.2666c-53.3496 -56.4834 -116.767 -97.75 -190.184 -123.634c-73.416 -26.1162 -150.933 -39.0996 -232.366 -39.0996c-77.917 0 -148.884 12.2998 -212.717 37.083c-63.833 24.5508 -118.533 58.9502 -163.583 102.934
c-45.3174 43.9502 -80.334 96.6504 -105.367 157.983c-25.0166 61.4004 -37.2832 128.366 -37.2832 200.9c0 71.6494 13.5996 137.933 40.8496 198.916c27.2334 60.917 64.2842 113.834 111.4 158.684c47.083 44.8662 102 79.917 165.167 105.6
c62.7334 25.167 130.149 37.9004 201.566 37.9004c61.5664 0 121.417 -8.91699 179.233 -26.7832c58.0332 -17.8672 109.366 -44.8672 154.233 -80.5664c44.833 -35.9336 80.5664 -80.5674 107.35 -134.367s40.2002 -116.967 40.2002 -189.533
c0 -53.8164 -7.38379 -101.333 -22.3662 -142.384c-14.9336 -41.3164 -34.7676 -75.6826 -59.8008 -103.566c-25 -27.916 -53.3662 -48.666 -85.4834 -62.5332c-32.166 -13.8164 -65.833 -20.75 -101.116 -20.75c-36.167 0 -65.1338 8.5166 -87.0332 25.4502
c-21.6836 16.9668 -32.584 38.5996 -32.584 64.5166h-6.71582c-13.584 -21.4502 -34.3672 -42 -62.4834 -61.167c-28.1338 -19.2334 -62.5 -29.0332 -103.351 -29.0332c-61.583 0 -109.149 20.083 -142.633 60.4834c-33.4834 40.417 -50.25 92.6836 -50.25 157.384
c0 37.6992 6.25 74.7666 18.9668 111.583c12.7158 36.8164 30.7998 69.4336 54.2334 98.25c23.4492 28.5498 51.5498 51.7666 84.1328 69.1836c32.6172 17.416 68.75 26.083 108.717 26.083c34.3662 0 63.4004 -7.13379 87.0498 -21.417
c23.4004 -14.2998 38.8506 -31.9326 46.1836 -52.4326h1.33301l10.9336 53.7832h121l-53.3838 -254.267c-1.7334 -12.4668 -4.2334 -26.334 -7.34961 -41.7334c-3.13379 -15.167 -4.68359 -29.4668 -4.68359 -43.0674c0 -15.166 2.90039 -27.9326 8.93359 -38.3994
c5.81641 -10.2666 17.4336 -15.417 34.6162 -15.417c35.25 0 64.5 18.7334 87.7168 56.4834c23 37.7334 34.6172 88.1836 34.6172 151.783c0 53.7832 -9.16699 101.55 -27.2666 143.084c-18.0498 41.7334 -43.2832 76.5498 -75.417 104.899
c-32.1504 28.1338 -70.5166 49.5498 -114.75 63.8506c-44.4336 14.2666 -92.8496 21.4326 -145.3 21.4326c-57.167 0 -109.367 -10.0664 -156.917 -30.1494c-47.5664 -20.084 -88.166 -47.9834 -121.633 -83.2666c-33.5 -35.4834 -59.584 -77.0166 -78.1338 -125
c-18.75 -47.7666 -28.1328 -99.5674 -28.1328 -155.15c0 -59.1328 9.83301 -112.483 29.2334 -160.066c19.4326 -47.5498 46.8828 -87.917 82.1826 -121.617c35.25 -33.7168 77.4502 -59.3662 126.351 -77.2832c48.8662 -17.833 102.866 -26.7334 161.55 -26.7334
c73.4336 0 136.616 11.584 189.517 35.0166c52.9004 23.2666 101.6 55.6006 145.967 96.8838zM531.316 451.816c-21.6494 0 -40.8496 -6.25 -57.166 -18.75c-16.3174 -12.5 -30.1338 -28.333 -41.5 -47.7832c-11.4004 -19.1836 -19.8672 -40.6328 -25.917 -63.833
c-5.7998 -23.2168 -8.93359 -45.7666 -8.93359 -67.1836c0 -10.7168 1.11719 -22.0996 3.33398 -34.3662c2.21582 -12.0166 6.69922 -23.2334 13.6328 -33.6836c6.66699 -10.2334 15.5996 -18.75 26.5498 -25.4336c10.917 -6.7168 25.4336 -10.0664 43.5 -10.0664
c24.5674 0 45.3174 6.0332 62.5332 18.0664c17.1504 12.1006 31.2168 27.2998 42.1504 45.7666c10.917 18.3164 18.75 38.4004 23.9004 59.8164c4.91602 21.4502 7.34961 41.3174 7.34961 59.167c0 14.2666 -1.33301 28.333 -4.0332 42.4004
c-2.63379 13.833 -7.33301 26.3164 -14.25 37.7002c-6.66699 11.166 -16.0332 20.3662 -27.8838 27.4658c-11.6328 7.15039 -26.0996 10.7168 -43.2666 10.7168z" />
    <glyph glyph-name="attachment" unicode="&#xf028;" horiz-adv-x="590" 
d="M534.934 640.017c22.1328 0 40.0166 -17.9004 40.0664 -40.0166v-519.983c0 -154.684 -125.333 -280.017 -280 -280.017c-154.634 0 -280 125.35 -280 280v0.200195v519.633v0.183594c0 110.467 89.5166 199.983 200.017 199.983c110.45 0 199.967 -89.5332 199.967 -200
v-519.983c0 -66.2334 -53.7168 -119.95 -119.983 -119.983c-66.25 0.0332031 -120 53.7002 -120 119.983l0.0166016 479.983c0.0166016 22.083 17.9336 39.9834 40.0166 39.9834c22.0332 0 39.9668 -17.9004 39.9668 -39.9834v-366.934v-113.05
c0 -22.0332 17.917 -40 39.9834 -40c22.0498 0 39.9834 17.9668 39.9834 40l-0.0332031 113.05v247.217l0.0332031 159.717c0 66.2666 -53.6836 120 -119.983 119.983c-66.2666 0.0332031 -120 -53.667 -120 -119.983v-159.7v-164.383v-195.767v-0.133789
c0 -110.417 89.5332 -199.967 200 -199.967c110.45 0 200 89.5498 200 200v0.0332031v195.834v324.116c-0.0166016 22.083 17.9004 39.9834 39.9502 39.9834z" />
    <glyph glyph-name="attention" unicode="&#xf029;" horiz-adv-x="250" 
d="M36.083 -200v173.616h177.834v-173.616h-177.834zM43.4004 98.5332l-28.4004 701.467h220l-28.3496 -701.467h-163.25z" />
    <glyph glyph-name="bot" unicode="&#xf02a;" 
d="M567.783 753.333c251.316 -22.666 447.217 -205.199 447.217 -427.033c0 -198.767 -149.05 -421.149 -362.5 -470.133c-41.2832 -9.4668 -92.7334 -9.4668 -137.5 -9.4668c-51.8838 0 -107.1 -1.13379 -154.167 11.4668
c-203.366 54.416 -345.833 275.517 -345.833 468.149c0 221.267 194.917 403.417 445.333 426.8v-110.416c0 -29.7334 24.0674 -53.7666 53.7168 -53.7666c29.7002 0 53.7334 24.083 53.7334 53.7666v110.633zM687.917 105.333c121.933 0 220.833 98.9668 220.833 220.95
c0 122 -98.9004 220.967 -220.833 220.967h-345.834c-121.967 0 -220.833 -98.9668 -220.833 -220.967c0 -121.983 98.8662 -220.95 220.833 -220.95h345.834zM357.017 472.15c13.8164 0 25 -11.2002 25 -25.0166v-212.634c0 -13.8164 -11.2002 -25.0332 -25 -25.0332
c-13.833 0 -25 11.2168 -25 25.0332v212.634c0 13.8164 11.167 25.0166 25 25.0166zM690.083 472.417c13.8008 0 25 -11.2168 25 -25.0332v-212.617c0 -13.8164 -11.1992 -25.0166 -25 -25.0166c-13.7998 0 -25 11.2002 -25 25.0166v212.617
c0 13.833 11.2002 25.0332 25 25.0332z" />
    <glyph glyph-name="branch" unicode="&#xf02b;" horiz-adv-x="670" 
d="M562.729 -192.684c-44.5996 -16.3164 -101.6 -5.25 -139.367 32.167c-37.8662 37.5996 -48.5498 91.8662 -32.166 138.95l-196.233 194.633c-47.5166 -16.2666 -102.316 -5.7832 -140.2 31.8838c-53.0166 52.5498 -53.0166 137.666 0 190.233
c53.0166 52.5664 138.867 52.5664 191.934 0c39.8662 -39.5498 49.7002 -97.584 29.5166 -146.351l182.983 -181.467l0.0498047 477.551c-12.917 6.31641 -25.1162 14.7998 -35.9004 25.4492c-52.9658 52.4834 -52.9658 137.634 0 190.233
c53.0674 52.5166 138.967 52.5166 191.9 0c53.0166 -52.5996 53.0166 -137.733 0 -190.233c-13.1162 -12.9824 -28.2168 -22.8164 -44.4336 -29.3828v-481.934c16.2168 -6.59961 31.3174 -16.3164 44.4336 -29.416c40.167 -39.75 48.9668 -99.5508 29.2666 -147.018
c-20.583 -49.583 -36.6328 -58.8164 -81.7832 -75.2998z" />
    <glyph glyph-name="build-alt" unicode="&#xf02c;" 
d="M265.033 490c-78.4336 0 -142.05 37.3164 -142.017 83.2998c0 46.0498 63.6172 83.334 142.017 83.334c78.4668 0 142 -37.3008 142 -83.334s-63.5166 -83.2998 -142 -83.2998zM516.134 633.333c-78.3672 0 -141.983 37.3008 -142.018 83.3174
c0 46.0498 63.6504 83.3496 142.018 83.3496c78.4658 0 142 -37.3164 142 -83.3496c0 -46.0508 -63.5508 -83.3174 -142 -83.3174zM765.033 490c-78.3496 0 -142.033 37.3164 -142.017 83.2998c0 46.0498 63.667 83.334 142.017 83.334
c78.4336 0 141.967 -37.3008 141.967 -83.334s-63.4668 -83.2998 -141.967 -83.2998zM516.1 348.717c-78.3828 0 -142.017 37.2998 -142.033 83.3164c0 46.0664 63.6504 83.333 142.033 83.333c78.4336 0 142 -37.2998 142 -83.333
c0 -46.0166 -63.5498 -83.3164 -142 -83.3164zM515.017 243.934l499.983 285v-440.017l-499.983 -288.917l-500.017 288.917v440.017zM467.233 -77.1504v247.851l-370.75 212.483v-247.634z" />
    <glyph glyph-name="build-fail-alt" unicode="&#xf02d;" horiz-adv-x="897" 
d="M683.733 547.533l49.9834 87.7998l147.949 -85.333v-167.017h-101.1v108.684zM780.533 241.467h101.133v-191.467l-433.333 -250l-433.333 250v500l433.333 250l142.866 -82.417l-51.3662 -87.0332l-91.5 52.7832l-332.233 -191.683v-383.301l332.233 -191.683
l332.2 191.683v133.117zM387.983 62.9502v110.75h120.683v-110.75h-120.683zM392.533 232.316l-12.3506 329.167h136.2l-12.2666 -329.167h-111.583z" />
    <glyph glyph-name="build-fail" unicode="&#xf02e;" 
d="M590.15 616.667h424.85v-633.283h-481.934l180.217 386.833l-238.116 -0.266602zM538.15 258.4l-128.167 -275.067h-394.983v633.334h452.1l-167.033 -358.533z" />
    <glyph glyph-name="build-success-alt" unicode="&#xf02f;" horiz-adv-x="910" 
d="M455 800l440 -250v-500l-440 -250l-440 250v500zM792.333 108.333v383.334l-337.333 191.666l-337.333 -191.699v-383.301l337.333 -191.649zM272.533 362.083l126.967 -125l258.967 254.917l77.3828 -76.1338l-336.1 -331.216l-204.566 201.267z" />
    <glyph glyph-name="build-success" unicode="&#xf030;" 
d="M15 130.467h381.9v-213.867h-381.9v213.867zM461 130.467h381.6v-213.867h-381.6v213.867zM490.483 408.434l129.85 -134.167v-79.4004h-381.433v213.567h251.583zM582.15 550.7l112.933 -114.233l250.867 246.934l69.0498 -67.9004l-322.167 -321.366l-180.933 186.933z
" />
    <glyph glyph-name="build" unicode="&#xf031;" 
d="M695.917 604.85h61.7168v-270.483h-478.584v270.483h62.6338l-0.433594 61.8174h122.934l0.416016 -61.8174h108.367l-0.400391 61.8174h122.95zM953.316 203.816h61.6836v-270.483h-478.583v270.483h62.6328l-0.416016 61.8174h122.949l0.416992 -61.8174h108.366
l-0.416016 61.8174h122.95zM431.866 203.816h61.7168v-270.483h-478.583v270.483h62.5996l-0.432617 61.8174h122.967l0.416016 -61.8174h108.367l-0.450195 61.8174h122.95z" />
    <glyph glyph-name="calendar" unicode="&#xf032;" 
d="M265.05 585.267c-39.5166 0 -71.4502 31.8672 -71.4502 71.2998v71.3174c0 39.416 31.9004 71.2998 71.4502 71.2998c39.5 0 71.4336 -31.8838 71.4336 -71.2998v-71.3174c0 -39.4326 -31.9336 -71.2998 -71.4336 -71.2998zM765 585.267
c-39.5332 0 -71.4502 31.8672 -71.4502 71.2998v71.3174c0 39.416 31.917 71.2998 71.4502 71.2998c39.5166 0 71.4502 -31.8838 71.4502 -71.2998v-71.3174c0 -39.4326 -31.9336 -71.2998 -71.4502 -71.2998zM997.15 727.9c9.81641 0 17.8828 -8.03418 17.8496 -17.8174
v-891.433c0 -9.7666 -8.08301 -17.834 -17.9004 -17.834h-964.183c-9.88379 0 -17.917 8.0332 -17.917 17.834v891.433c0 9.7832 8.0332 17.8174 17.917 17.8174h125v-90.7002c0 -50.1338 53.5332 -87.5664 107.149 -87.5664c53.5498 0 107.101 37.4326 107.101 87.5664
v90.7002h285.767v-90.7002c0 -50.1338 55.2666 -87.5664 108.85 -87.5664c53.5664 0 105.384 37.4326 105.384 87.5664v90.7002h124.983zM907.9 -92.2168v570.533h-785.717v-570.533h785.666h0.0507812z" />
    <glyph glyph-name="cancel" unicode="&#xf033;" horiz-adv-x="941" 
d="M429.133 800c274.417 0 496.967 -223.833 496.967 -499.983c0 -276.116 -222.483 -500.017 -496.967 -500.017c-137.233 0 -261.467 55.9668 -351.35 146.366l104.983 105.634c63.0498 -63.4336 150.167 -102.667 246.366 -102.667
c192.517 0 348.551 157 348.551 350.667c0 193.684 -156.034 350.684 -348.551 350.684c-75.0996 0 -144.416 -24.1504 -201.316 -64.7832l118.5 -119.233h-331.316v333.333l106.866 -107.533c84.6006 67.1494 191.134 107.533 307.267 107.533z" />
    <glyph glyph-name="clipboard" unicode="&#xf034;" horiz-adv-x="830" 
d="M15 -116.65v708.317c0 46.0664 36.7168 83.333 82.0498 83.333h167.2c14.1162 71.2168 76.3164 125 150.767 125s136.634 -53.7832 150.733 -125h167.15c45.3828 0 82.0996 -37.2666 82.0996 -83.333v-708.317c0 -46.0498 -36.7168 -83.3496 -82.0996 -83.3496h-635.851
c-45.3164 0 -82.0498 37.2998 -82.0498 83.3496zM162.684 570.816c-25 0 -45.1172 -20.4326 -45.1172 -45.8164v-574.967c0 -25.3828 20.1172 -45.8496 45.1172 -45.8496h504.616c24.9668 0 45.084 20.4326 45.084 45.8496v574.95c0 25.4004 -20.1172 45.833 -45.084 45.833
h-98.4668v-37.5c0 -25.3994 -20.083 -45.833 -45.1494 -45.833h-217.384c-25.0332 0 -45.1494 20.4336 -45.1494 45.833v37.5h-98.4668zM363.717 643.75c0 -28.75 22.9668 -52.083 51.2666 -52.083s51.3164 23.333 51.3164 52.083s-23.0166 52.083 -51.3164 52.083
s-51.2666 -23.333 -51.2666 -52.083z" />
    <glyph glyph-name="clone-code" unicode="&#xf035;" horiz-adv-x="747" 
d="M669.817 304.767l-250.233 -251.017c0 -0.349609 -0.383789 -0.349609 -0.383789 -0.349609c-1.59961 -1.60059 -3.18262 -3.2334 -4.7666 -4.40039c-1.58301 -1.2002 -3.13281 -2.38379 -4.75 -3.58301c-0.366211 -0.466797 -0.799805 -0.466797 -1.2002 -0.817383
c-1.18262 -0.799805 -2.75 -1.64941 -3.91602 -2.43262c-0.817383 -0.400391 -1.2168 -0.400391 -1.60059 -0.75c-1.5332 -0.800781 -3.56641 -1.58398 -5.16602 -2.43359c-1.61719 -0.433594 -3.16699 -1.18359 -4.7666 -1.59961
c-0.350586 0 -0.766602 -0.350586 -1.16699 -0.350586c-0.799805 0 -1.16699 -0.382812 -1.9834 -0.382812c-5.5166 -1.61719 -11.4336 -2.43359 -16.9834 -2.43359c-5.58301 0 -11.5 0.799805 -17.0664 2.43359c-0.783203 0 -1.16699 0.382812 -1.9502 0.382812
c-0.416992 0 -0.783203 0.350586 -1.18359 0.350586c-1.61621 0.432617 -3.2002 0.816406 -4.7666 1.59961c-2 0.833008 -3.58301 1.61621 -5.14941 2.43359c-0.433594 0.366211 -0.78418 0.366211 -1.2002 0.75c-1.2002 0.799805 -2.7666 1.61621 -3.9502 2.43262
c-0.400391 0.367188 -0.766602 0.367188 -1.2168 0.817383c-3.5498 1.94922 -6.7334 4.75 -9.4668 7.5166v0.416016l-249.833 251.4c-25.3672 25.583 -25.3672 67.4668 0.382812 93.3838c25.7334 25.9492 67.6836 25.9492 93.4336 0l138.55 -138.867v474.5
c0 36.7002 26.9336 66.2334 63.4004 66.2334c36.417 0 63.3496 -29.5332 63.3662 -66.2168v-474.066l139.351 138.434c25.7334 25.9492 68.4668 25.9492 94.2168 0c25.7832 -25.5342 25.7832 -67.417 0 -93.3838zM732.284 -159.434
c0 -22.4326 -18 -40.5664 -40.2334 -40.5664h-636.817c-22.2334 0 -40.2334 18.1338 -40.2334 40.5664c0 22.4004 18 40.5332 40.2334 40.5332h636.817c22.1992 -0.0166016 40.2334 -18.1826 40.2334 -40.5332z" />
    <glyph glyph-name="cloud-outline" unicode="&#xf036;" horiz-adv-x="1024" 
d="M81.2471 187.109c0 66.2861 56.751 123.416 134.138 123.55l32.6426 0.0566406v39.8867c0 100.588 92.1074 188.36 208.869 188.36c83.2891 0 154.191 -46.1426 186.893 -108.824l14.6328 -28.0488l28.6904 13.3291c12.5117 5.81348 26.2676 9.04199 41.5283 9.04199
c45.2168 0 82.4951 -33.8613 89.458 -71.248l3.63867 -19.5361l18.9482 -5.98438c61.8721 -19.543 102.358 -68.6758 102.358 -126.813c0 -73.8945 -66.5244 -139.988 -152.505 -139.988h-572.575c-76.3271 0 -136.717 60.5586 -136.717 126.219zM15 187.109
c0 -105.922 92.9297 -192.466 202.964 -192.466h572.575c119.097 0 218.751 91.9131 218.751 206.235c0 89.4238 -65.0146 155.339 -130.974 183.695c-25.0176 66.5801 -80.6729 106.134 -149.676 106.134c-13.793 0 -31.6445 -2.97266 -41.1904 -4.65625
c-54.7676 77.0557 -134.644 119.158 -230.554 119.158c-145.117 0 -255.822 -102.405 -274.08 -230.729c-101.425 -17.9326 -167.816 -93.4551 -167.816 -187.371z" />
    <glyph glyph-name="cloud" unicode="&#xf037;" 
d="M15 175.634c0 94.9658 79.0166 172.482 180.134 172.716c0 2.5 -0.450195 5 -0.450195 7.4834c0 133.95 117.883 244.167 260.717 244.167c102.899 0 191.517 -58.0996 233.033 -139.583c18.083 8.56641 38.1494 13.333 59.8164 13.333
c66.083 0 120.767 -49.3662 131.483 -108.333c78.5664 -25.417 135.267 -92.084 135.267 -174.584c0 -103.717 -89.5166 -190.833 -200 -190.833h-616.967c-100.45 0 -183.033 81.0498 -183.033 175.634z" />
    <glyph glyph-name="code" unicode="&#xf038;" 
d="M15 340.967l403.866 178.783v-100.983l-291.316 -118.35v-1.68359l291.316 -117.533v-101l-403.866 178.833v81.9336zM1015 259.033l-403.866 -178.783v100.983l291.316 117.55v1.66699l-291.316 118.35v101l403.866 -178.816v-81.9502z" />
    <glyph glyph-name="comment-outline" unicode="&#xf039;" horiz-adv-x="953" 
d="M15 800h923.05v-629.783h-552.149l-370.9 -370.217v370.217v629.783zM866.25 250v472.233h-779.467v-531.816v-209.167l266.816 268.75h512.65z" />
    <glyph glyph-name="comment" unicode="&#xf03a;" horiz-adv-x="953" 
d="M15 800h923.033v-629.783h-552.15l-370.883 -370.217v370.217v629.783z" />
    <glyph glyph-name="company" unicode="&#xf03b;" 
d="M15 -149.983c0 27.6172 22.3838 50 50 50h51.917c-0.283203 1.81641 -0.550781 3.65039 -0.550781 5.5498v122.533c-42 14.4336 -72.2158 54.1836 -72.2158 101.067c0 0 47.8828 320.85 106.949 320.85c59.0674 0 106.95 -320.85 106.95 -320.85
c0 -46.8838 -30.2168 -86.6504 -72.2334 -101.067v-122.533c0 -1.89941 -0.25 -3.7334 -0.549805 -5.5498h163.066v766.65c0 27.6162 22.3838 50 50 50h566.667c27.5996 0 50 -22.3838 50 -50v-816.667c0 -27.6162 -22.4004 -50 -50 -50h-171.35v264.583
c0 27.6172 -22.4004 50 -50 50h-123.967c-27.6006 0 -50 -22.3828 -50 -50v-264.583h-196.351h-25h-283.333c-27.6162 0 -50 22.3838 -50 50.0166zM756.667 302.783v-33.333c0 -27.6172 22.3994 -50.0166 50 -50.0166h33.333c27.5996 0 50 22.3994 50 50.0166v33.333
c0 27.6172 -22.4004 50 -50 50h-33.333c-27.6006 0 -50 -22.3828 -50 -50zM756.667 552.783v-33.333c0 -27.6006 22.3994 -50 50 -50h33.333c27.5996 0 50 22.3828 50 50v33.333c0 27.6172 -22.4004 50 -50 50h-33.333c-27.6006 0 -50 -22.3828 -50 -50zM473.333 302.783
v-33.333c0 -27.6172 22.4004 -50.0166 50 -50.0166h33.334c27.5996 0 50 22.3994 50 50.0166v33.333c0 27.6172 -22.4004 50 -50 50h-33.334c-27.5996 0 -50 -22.3828 -50 -50zM473.333 552.783v-33.333c0 -27.6006 22.4004 -50 50 -50h33.334c27.5996 0 50 22.3828 50 50
v33.333c0 27.6172 -22.4004 50 -50 50h-33.334c-27.5996 0 -50 -22.3828 -50 -50z" />
    <glyph glyph-name="dashboard-outline" unicode="&#xf03c;" 
d="M15 800h409.316v-414.85h-409.316v414.85zM344.517 466.017v253.083h-249.717v-253.083h249.717zM15 243.684h409.316v-414.851h-409.316v414.851zM344.5 -90.2998v253.066h-249.7v-253.066h249.7zM581.25 800h409.283v-414.85h-409.283v414.85zM912.4 467.7h-0.0166016
v249.717h-246.351v-249.717h246.367zM781.967 272.467c128.767 0 233.033 -105.75 233.033 -236.283c0 -130.384 -104.25 -236.184 -233.033 -236.184c-128.65 0 -233.083 105.8 -233.066 236.184c0 130.517 104.399 236.283 233.066 236.283zM781.967 -107.533
c78.3828 0 141.816 64.3828 141.833 143.767c0 79.4668 -63.4502 143.816 -141.833 143.816c-78.333 0 -141.9 -64.3496 -141.9 -143.816c0 -79.3838 63.584 -143.767 141.9 -143.767z" />
    <glyph glyph-name="dashboard" unicode="&#xf03d;" 
d="M15 800h409.316v-414.85h-409.316v414.85zM15 243.684h409.316v-414.851h-409.316v414.851zM581.25 800h409.3v-414.85h-409.3v414.85zM781.967 272.467c128.767 0 233.033 -105.75 233.033 -236.283c0 -130.384 -104.25 -236.184 -233.033 -236.184
c-128.65 0 -233.083 105.8 -233.05 236.184c0 130.517 104.383 236.283 233.05 236.283z" />
    <glyph glyph-name="deveo" unicode="&#xf03e;" horiz-adv-x="762" 
d="M15 -200l0.899414 184.083h320.117c179.283 0 205.316 129 205.316 334.801c0 202.866 -26.0166 297.066 -205.316 297.066h-320.117l-0.899414 184.05h321.017c328.217 0 410.649 -150.733 410.666 -481.184c0 -339.116 -72.3164 -518.816 -410.666 -518.816h-321.017z
" />
    <glyph glyph-name="directory-new-outline" unicode="&#xf03f;" 
d="M948.333 327.533h66.667v-329.883v-66.667h-66.667h-866.666h-66.667v66.667v604.683v66.667h66.667h414.583v-0.133789l98.083 -98.0664h84.4668v-66.666h-112.149v0.0664062l-98.1504 98.1328h-386.833v-604.683h866.666v329.883zM855.833 386.083v76.25
c0 5.55078 0.350586 10.9668 1.0332 16.25c0.683594 5.2666 1.86719 10.2666 3.55078 15c-3.06738 -3.88281 -6.66699 -7.36621 -10.834 -10.416c-4.16602 -3.06738 -8.61621 -6.11719 -13.333 -9.16699l-65.833 -38.333l-24.584 41.666l66.25 38.334
c5 3.0498 9.93359 5.5498 14.8008 7.5c4.84961 1.94922 9.93262 3.33301 15.1992 4.16602c-5.2666 0.550781 -10.3496 1.9502 -15.1992 4.16699c-4.86719 2.2168 -9.80078 4.86621 -14.8008 7.91699l-66.25 38.75l24.1504 41.666l66.2666 -39.166
c4.7168 -3.06738 9.2334 -6.18359 13.5332 -9.36719c4.2998 -3.2002 7.9834 -6.7334 11.0332 -10.6328c-1.93262 4.7168 -3.2666 9.7168 -3.9502 15c-0.699219 5.2666 -1.0332 10.6992 -1.0332 16.25v77.083h49.167v-76.25c0 -5.83301 -0.349609 -11.4668 -1.0332 -16.8838
c-0.700195 -5.41602 -2.0166 -10.4824 -3.9502 -15.2158c3.0498 3.88281 6.65039 7.43262 10.8164 10.6328c4.16699 3.18359 8.75 6.31641 13.75 9.36719l65.834 38.333l24.583 -41.6504l-66.25 -37.916c-5 -3.06738 -9.9502 -5.61719 -14.7998 -7.7002
c-4.86719 -2.08301 -9.93359 -3.5332 -15.2002 -4.38379c9.43359 -1.66602 19.4336 -5.5498 30 -11.666l66.25 -38.75l-24.167 -41.667l-66.25 38.75c-5 3.0498 -9.58301 6.09961 -13.75 9.16699c-4.16602 3.0498 -7.91602 6.5332 -11.25 10.416
c3.61719 -8.89941 5.41699 -19.166 5.41699 -30.833v-76.667h-49.167z" />
    <glyph glyph-name="directory-outline" unicode="&#xf040;" 
d="M948.333 570.833h66.667v-573.183v-66.667h-66.667h-866.666h-66.667v66.667v604.683v66.667h66.667h414.583v-0.116211l98.083 -98.084h354v0.0332031zM81.667 -2.34961h866.666v506.466h-381.683v0.0839844l-98.1504 98.1328h-386.833v-604.683z" />
    <glyph glyph-name="directory" unicode="&#xf041;" 
d="M948.333 570.833h66.667v-573.183v-66.667h-66.667h-866.666h-66.667v66.667v604.683v66.667h66.667h414.583v-0.116211l98.083 -98.084h354v0.0332031z" />
    <glyph glyph-name="document-new" unicode="&#xf042;" horiz-adv-x="947" 
d="M772.5 517.083v76.25c0 5.55078 0.350586 10.9668 1.0332 16.25c0.683594 5.2666 1.86719 10.2666 3.55078 15c-3.06738 -3.88281 -6.65039 -7.36621 -10.8174 -10.416c-4.16602 -3.06738 -8.61621 -6.11719 -13.333 -9.16699l-65.833 -38.333l-24.6006 41.666
l66.2666 38.334c5 3.0498 9.93359 5.5498 14.8008 7.5c4.84961 1.94922 9.93262 3.33301 15.1992 4.16602c-5.2666 0.550781 -10.3496 1.9502 -15.1992 4.16699c-4.86719 2.2168 -9.80078 4.86621 -14.8008 7.91699l-66.2666 38.75l24.1504 41.666l66.2832 -39.166
c4.7168 -3.06738 9.2334 -6.18359 13.5332 -9.36719c4.31641 -3.2002 7.9834 -6.7334 11.0332 -10.6328c-1.93262 4.7168 -3.2666 9.7168 -3.94922 15c-0.683594 5.2666 -1.03418 10.6992 -1.03418 16.25v77.083h49.167v-76.25
c0 -5.83301 -0.349609 -11.4668 -1.0332 -16.8838c-0.700195 -5.41602 -2.0166 -10.4824 -3.93359 -15.2158c3.0498 3.88281 6.63379 7.43262 10.7998 10.6328c4.16699 3.18359 8.75 6.31641 13.75 9.36719l65.834 38.333l24.5664 -41.6504l-66.25 -37.916
c-5.0166 -3.06738 -9.9668 -5.61719 -14.8164 -7.7002c-4.85059 -2.08301 -9.91699 -3.5332 -15.1836 -4.38379c9.43359 -1.66602 19.4336 -5.5498 30.0166 -11.666l66.2334 -38.75l-24.167 -41.667l-66.25 38.75c-5 3.0498 -9.58301 6.09961 -13.75 9.16699
c-4.16602 3.0498 -7.91602 6.5332 -11.25 10.416c3.61719 -8.89941 5.41699 -19.166 5.41699 -30.833v-76.667h-49.167zM762.5 463.533h85.834v-594.767c0 -35.583 -30.3008 -68.7666 -63.584 -68.7666h-712.866c-33.2666 0 -56.8838 33.1836 -56.8838 68.7666v628.533
c0 9.56641 1.08398 16.4668 3.2334 25.2334c1.85059 7.7168 5.33398 13.2832 9.36719 18.0664l224.517 243.467c5.08301 5.58398 11 8.2334 17.7002 11.6836c7.7832 3.9834 16.3496 4.25 25.2158 4.25h310.601v-85.2334h-249.967v-216.934
c0 -39.3164 -35.9336 -75.1494 -75.3662 -75.1494h-179.45v-537.983h661.649v578.833z" />
    <glyph glyph-name="document-text-new" unicode="&#xf043;" horiz-adv-x="947" 
d="M772.5 517.083v76.25c0 5.55078 0.350586 10.9668 1.0332 16.25c0.683594 5.2666 1.86719 10.2666 3.55078 15c-3.06738 -3.88281 -6.65039 -7.36621 -10.8174 -10.416c-4.16602 -3.06738 -8.61621 -6.11719 -13.333 -9.16699l-65.833 -38.333l-24.6006 41.666
l66.2666 38.334c5 3.0498 9.93359 5.5498 14.8008 7.5c4.84961 1.94922 9.93262 3.33301 15.1992 4.16602c-5.2666 0.550781 -10.3496 1.9502 -15.1992 4.16699c-4.86719 2.2168 -9.80078 4.86621 -14.8008 7.91699l-66.2666 38.75l24.1504 41.666l66.2832 -39.166
c4.7168 -3.06738 9.2334 -6.18359 13.5332 -9.36719c4.31641 -3.2002 7.9834 -6.7334 11.0332 -10.6328c-1.93262 4.7168 -3.2666 9.7168 -3.94922 15c-0.683594 5.2666 -1.03418 10.6992 -1.03418 16.25v77.083h49.167v-76.25
c0 -5.83301 -0.349609 -11.4668 -1.0332 -16.8838c-0.700195 -5.41602 -2.0166 -10.4824 -3.93359 -15.2158c3.0498 3.88281 6.63379 7.43262 10.7998 10.6328c4.16699 3.18359 8.75 6.31641 13.75 9.36719l65.834 38.333l24.5664 -41.6504l-66.25 -37.916
c-5.0166 -3.06738 -9.9668 -5.61719 -14.8164 -7.7002c-4.85059 -2.08301 -9.91699 -3.5332 -15.1836 -4.38379c9.43359 -1.66602 19.4336 -5.5498 30.0166 -11.666l66.2334 -38.75l-24.167 -41.667l-66.25 38.75c-5 3.0498 -9.58301 6.09961 -13.75 9.16699
c-4.16602 3.0498 -7.91602 6.5332 -11.25 10.416c3.61719 -8.89941 5.41699 -19.166 5.41699 -30.833v-76.667h-49.167zM762.5 463.533h85.834v-594.767c0 -35.583 -30.3008 -68.7666 -63.584 -68.7666h-712.866c-33.2666 0 -56.8838 33.1836 -56.8838 68.7666v628.533
c0 9.56641 1.08398 16.4668 3.2334 25.2334c1.85059 7.7168 5.33398 13.2832 9.36719 18.0664l224.517 243.467c5.08301 5.58398 11 8.2334 17.7002 11.6836c7.7832 3.9834 16.3496 4.25 25.2158 4.25h310.601v-85.2334h-249.967v-216.934
c0 -39.3164 -35.9336 -75.1494 -75.3662 -75.1494h-179.45v-537.983h661.649v578.833zM195 245v78.333h473.351v-78.333h-473.351zM195 101.667v78.333h473.351v-78.333h-473.351zM195 -34.9834v78.3164h236.667v-78.3164h-236.667z" />
    <glyph glyph-name="document-text" unicode="&#xf044;" horiz-adv-x="863" 
d="M15 497.3c0 9.56641 1.08398 16.4668 3.2334 25.2334c1.85059 7.7168 5.33398 13.2832 9.36719 18.0664l224.517 243.467c5.08301 5.58398 11 8.2334 17.7002 11.6836c7.7832 3.9834 16.3496 4.25 25.2158 4.25h489.733c33.2666 0 63.5674 -25.4834 63.5674 -60.7998
v-870.434c0 -35.583 -30.3008 -68.7666 -63.5674 -68.7666h-712.883c-33.2666 0 -56.8838 33.1836 -56.8838 68.7666v628.533zM100.851 -115.3h661.649v830.066h-406.833v-216.934c0 -39.3164 -35.9336 -75.1494 -75.3662 -75.1494h-179.45v-537.983zM195 245v78.333
h473.351v-78.333h-473.351zM195 101.667v78.333h473.351v-78.333h-473.351zM195 -34.9834v78.3164h236.667v-78.3164h-236.667z" />
    <glyph glyph-name="document" unicode="&#xf045;" horiz-adv-x="863" 
d="M15 497.3c0 9.56641 1.08398 16.4668 3.2334 25.2334c1.85059 7.7168 5.33398 13.2832 9.36719 18.0664l224.517 243.467c5.08301 5.58398 11 8.2334 17.7002 11.6836c7.7832 3.9834 16.3496 4.25 25.2158 4.25h489.733c33.2666 0 63.5674 -25.4834 63.5674 -60.7998
v-870.434c0 -35.583 -30.3008 -68.7666 -63.5674 -68.7666h-712.883c-33.2666 0 -56.8838 33.1836 -56.8838 68.7666v628.533zM100.851 -115.3h661.649v830.066h-406.833v-216.934c0 -39.3164 -35.9336 -75.1494 -75.3662 -75.1494h-179.45v-537.983z" />
    <glyph glyph-name="dots" unicode="&#xf046;" 
d="M165 258.333c0 -18.3994 -14.9336 -33.333 -33.333 -33.333h-83.334c-18.3994 0 -33.333 14.9336 -33.333 33.333v83.334c0 18.3994 14.9336 33.333 33.333 33.333h83.334c18.3994 0 33.333 -14.9336 33.333 -33.333v-83.334zM1015 258.333
c0 -18.3994 -14.9336 -33.333 -33.333 -33.333h-83.334c-18.3994 0 -33.333 14.9336 -33.333 33.333v83.334c0 18.3994 14.9336 33.333 33.333 33.333h83.334c18.3994 0 33.333 -14.9336 33.333 -33.333v-83.334zM590 258.333c0 -18.3994 -14.9336 -33.333 -33.333 -33.333
h-83.334c-18.3994 0 -33.333 14.9336 -33.333 33.333v83.334c0 18.3994 14.9336 33.333 33.333 33.333h83.334c18.3994 0 33.333 -14.9336 33.333 -33.333v-83.334z" />
    <glyph glyph-name="edit-outline" unicode="&#xf047;" 
d="M119.333 163.6l636.384 636.4l259.283 -259.283l-636.4 -636.384zM920.717 540.717l-165 165l-542.117 -542.117l165 -164.983zM30.6338 61.1836l257.083 -261.184h-272.717z" />
    <glyph glyph-name="edit" unicode="&#xf048;" 
d="M755.729 799.999l259.27 -259.27l-636.39 -636.391l-259.271 259.271zM30.6338 61.1836l257.083 -261.184h-272.717z" />
    <glyph glyph-name="eficode" unicode="&#xf049;" 
d="M995.821 383.783c10.0166 -16.7666 18.9336 -38.9834 19.1504 -60.9834c0.316406 -31.6328 -15 -59.8662 -38.917 -77.5664l-369.399 -276.033c-29.0508 -20.6504 -57.25 -35.8672 -91.667 -35.8672c-34.4004 0 -62.583 15.2168 -91.667 35.8672l-369.399 276.05
c-23.9004 17.7002 -39.2334 45.9336 -38.917 77.5664c0.150391 21.9668 9.11719 44.2002 19.1836 60.9668c0 0 141.267 238.017 142.5 239.934l0.166016 0.299805h0.0341797c15.5166 24.3164 42.4492 40.917 73.3994 42.6504h529.384
c31 -1.7334 57.8828 -18.3672 73.4326 -42.6504l0.200195 -0.299805c1.2002 -1.91699 142.517 -239.934 142.517 -239.934zM640.905 325.35c0.566406 10.4834 1.08301 20.3838 1.14941 30.6836c0 48.7998 -6.61621 76.9834 -22.9326 97.4336
c-22.1338 26.6494 -67.1836 30.333 -112.4 30.333c-61.5498 0 -106.45 -8.9668 -125.667 -52.8994c-9.64941 -22.1006 -15.416 -58.8008 -15.416 -98.334c0 -129.416 45.833 -151.166 148.583 -151.166c65.2334 0 105.767 11.9834 107.5 12.4326l3.2168 1.0332
l-7.0166 36.7842l-3.91699 -0.883789c-0.416992 -0.0830078 -46.167 -9.7334 -102.3 -9.7334c-40.5 0 -65.6504 6.7832 -78.9668 21.5498c-17.8662 19.3672 -17.8662 53.3174 -17.8662 75.7832v2.2168c-0.0341797 4.2002 -0.166992 9.5332 2.06641 11.6836
c0.916016 0.983398 2.4834 1.43359 4.7334 1.43359c3.61621 0 5.34961 -1.15039 9.16602 -3.7002l20.417 -13.5498l1 -0.0664062c0.483398 0 42.2168 -2.4502 87.0498 -2.4502c37.5166 0 70.1338 2.7334 87.6172 4.18262c4.4834 0.367188 7.9668 0.666992 10.166 0.767578
l3.4668 0.25zM510.405 445.35c65.3496 0 81.2168 -8.4834 81.5664 -91.416c-21.5996 -1.9502 -47.2334 -2.35059 -65.2998 -2.35059c-12.3506 0 -20.6504 0.200195 -20.6504 0.200195h-0.0996094h-0.0839844s-3.58301 -0.0664062 -9.58301 -0.0664062
c-17.3662 0 -50.3828 0.683594 -80.6162 5.09961c3.61621 74.9834 5.56641 88.5332 94.7666 88.5332z" />
    <glyph glyph-name="evt_add_app" unicode="&#xf04a;" horiz-adv-x="980" 
d="M824.55 655.417h140.45v-103.983h-140.45v-138.101h-105.733v138.101h-140.483v103.983h140.483v144.583h105.733v-144.583zM348.333 566.667l333.334 -191.667v-383.333l-333.334 -191.667l-333.333 191.667v383.333zM304.434 -97.4668v265.9l-223.101 128.316v-266.8z
M115.667 355.083l223.1 -128.316l232.283 134.367l-222.3 127.85zM617.083 124.4c-19.6992 9.46582 -19.6992 45.8164 0.0332031 81.2998c3.35059 6.13281 7.15039 11.7334 11.167 16.8994c-4.9502 11.667 -12.0498 20.834 -21.1836 27.334
c-3.93262 -5.2002 -8.13281 -10.1338 -12.7998 -14.5674c-26.8828 -25.916 -54.5166 -25.916 -61.7666 0c-1.2002 4.35059 -1.7002 9.2168 -1.63281 14.3506c-14.0508 -6.5166 -28.0508 -15.6836 -41.7334 -27.2832c0.0498047 -5.2168 -0.433594 -10.8838 -1.68359 -17
c-7.2666 -35.3506 -34.8838 -71.75 -61.7832 -81.2002c-4.61719 -1.65039 -8.90039 -2.2998 -12.7832 -2.2334c-4.36719 -8.91699 -8.5 -18.0664 -12.0332 -27.4336c-3.55078 -9.31641 -6.38379 -18.4834 -8.81738 -27.3662
c3.90039 0.0166016 7.65039 -0.633789 10.9336 -2.2168c19.75 -9.4668 19.7168 -45.9004 0.0332031 -81.1836c-3.41699 -6.14941 -7.2002 -11.7002 -11.2002 -16.8662c4.85059 -11.6836 11.9502 -20.917 20.9502 -27.4668c3.93359 5.16699 8.16699 10.083 12.7168 14.5166
c26.9502 25.8496 54.5996 25.8496 61.7832 0c1.2832 -4.5166 1.7666 -9.5 1.7334 -14.7832c13.9668 6.5166 28.2168 15.75 42.0166 27.5c-0.0332031 5.11621 0.450195 10.75 1.68359 16.7666c7.2334 35.3994 34.8662 71.75 61.7832 81.2168
c4.56641 1.63281 8.7666 2.2832 12.667 2.2168c4.43262 9.0166 8.56641 18.1992 12.1494 27.5664c3.66699 9.4668 6.5166 18.6836 8.9502 27.7334c-3.9834 -0.100586 -7.7832 0.549805 -11.1836 2.2002z" />
    <glyph glyph-name="evt_add_attachment" unicode="&#xf04b;" horiz-adv-x="857" 
d="M700.933 655.2h140.634v-104.101h-140.634v-138.25h-105.883v138.25h-140.634v104.101h140.634v144.8h105.883v-144.8zM417.833 444.8c17.1504 0 31.0332 -13.75 31.0664 -30.7666v-399.167c0 -118.75 -97.1494 -214.933 -216.967 -214.933
c-119.8 0 -216.933 96.25 -216.933 214.933v0.166992v398.9v0.166016c0 84.7666 69.333 153.517 154.967 153.517c85.583 0 154.933 -68.75 154.933 -153.566v0.0166016v-399.149c0 -50.8506 -41.6328 -92.084 -92.9492 -92.084
c-51.334 0.0166016 -92.9668 41.2002 -92.9668 92.084v368.433c0 16.9834 13.8994 30.7002 31 30.7002c17.0664 0 30.9668 -13.7168 30.9668 -30.7002v-281.683v-86.75c0 -16.9502 13.8662 -30.7334 30.9658 -30.7334c17.1006 0 31 13.7998 31 30.7334l-0.0332031 86.75
v189.8l0.0332031 122.566c0 50.8672 -41.6328 92.1006 -92.9834 92.1006c-51.3496 0.0166016 -92.9658 -41.2168 -92.9658 -92.1006v-122.6v-126.15v-150.283v-0.0996094c0 -84.8008 69.3662 -153.517 154.949 -153.517c85.6006 0 154.967 68.7158 154.967 153.517
v0.0332031v150.35v248.816c-0.0166016 16.9668 13.8672 30.7002 30.9502 30.7002z" />
    <glyph glyph-name="evt_add_bot" unicode="&#xf04c;" 
d="M874.55 655.417h140.45v-103.983h-140.45v-138.101h-105.733v138.101h-140.483v103.983h140.483v144.583h105.733v-144.583zM438.8 500c192.667 -17.4834 342.867 -158.434 342.867 -329.717c0 -153.45 -114.283 -325.167 -277.917 -362.983
c-31.6504 -7.2998 -71.0996 -7.2998 -105.417 -7.2998c-39.7832 0 -82.0996 -0.883789 -118.199 8.84961c-155.884 42.0342 -265.134 212.733 -265.134 361.45c0 170.834 149.434 311.467 341.434 329.533v-85.25c0 -22.9326 18.4502 -41.5 41.1826 -41.5
c22.7842 0 41.1836 18.584 41.1836 41.5v85.417zM530.9 -0.299805c93.5 0 169.316 76.3662 169.316 170.566c0 94.2168 -75.8164 170.6 -169.316 170.6h-265.134c-93.5 0 -169.316 -76.3994 -169.316 -170.6c0 -94.167 75.8164 -170.566 169.316 -170.566h265.134z
M277.2 282.917c10.5996 0 19.1836 -8.66699 19.166 -19.3008v-164.183c0 -10.6338 -8.56641 -19.3174 -19.166 -19.3174c-10.5664 0 -19.1504 8.65039 -19.1504 19.3174v164.183c0 10.6338 8.56641 19.3008 19.1504 19.3008zM532.583 283.1
c10.5508 0 19.1504 -8.63281 19.1504 -19.3164v-164.184c0 -10.6328 -8.56641 -19.2998 -19.1504 -19.2998c-10.583 0 -19.166 8.61719 -19.166 19.2998v164.184c0 10.6338 8.56641 19.3164 19.166 19.3164z" />
    <glyph glyph-name="evt_add_branch" unicode="&#xf04d;" horiz-adv-x="949" 
d="M793.254 655.4h140.45v-103.967h-140.45v-138.101h-105.733v138.101h-140.483v103.967h140.483v144.6h105.733v-144.6zM437.171 -194.267c-34.3672 -12.7666 -78.3164 -4.13379 -107.434 25.0664c-29.2168 29.334 -37.3994 71.6504 -24.7666 108.4l-151.283 151.783
c-36.5996 -12.7002 -78.833 -4.5166 -108.05 24.8662c-40.8506 41 -40.8506 107.384 0 148.367c40.8662 41.0166 107.066 41.0166 147.95 0c30.7324 -30.8672 38.3164 -76.1172 22.75 -114.167l141.083 -141.533l0.0166016 372.5
c-9.9502 4.9502 -19.3496 11.5498 -27.6504 19.8496c-40.8164 40.9668 -40.8164 107.367 0 148.384c40.8838 40.9668 107.134 40.9668 147.917 0c40.833 -41.0166 40.833 -107.434 0 -148.384c-10.0996 -10.1162 -21.7832 -17.7666 -34.2666 -22.916v-375.917
c12.4834 -5.14941 24.0996 -12.7334 34.2666 -22.9336c30.9502 -31 37.7334 -77.6494 22.5664 -114.683c-15.9326 -38.6338 -28.2998 -45.8672 -63.0996 -58.6836z" />
    <glyph glyph-name="evt_add_group-outline" unicode="&#xf04e;" horiz-adv-x="1025" 
d="M606.682 174.738c-42.4219 0 -76.8252 34.4062 -76.8252 76.7432c0 42.4229 34.4385 76.8076 76.8252 76.8076c42.417 0 76.8076 -34.3555 76.8076 -76.8076c0 -42.3584 -34.3857 -76.7432 -76.8076 -76.7432zM606.682 117.645
c73.9189 0 133.901 59.9189 133.901 133.837c0 73.9863 -59.9785 133.901 -133.901 133.901c-73.8896 0 -133.918 -59.9189 -133.918 -133.901c0 -73.9072 59.998 -133.837 133.918 -133.837zM293.367 356.216c-41.9873 0 -75.9775 34.0078 -75.9775 75.9619
c0 41.9932 34.0098 75.9619 75.9775 75.9619c41.9648 0 75.9619 -33.9629 75.9619 -75.9619c0 -41.9561 -33.9941 -75.9619 -75.9619 -75.9619zM293.367 299.123c73.4951 0 133.056 59.5811 133.056 133.055c0 73.5283 -59.5898 133.055 -133.056 133.055
c-73.4609 0 -133.071 -59.5205 -133.071 -133.055c0 -73.4756 59.5645 -133.055 133.071 -133.055zM734.959 25.9375c47.5078 -26.04 84.2852 -74.46 84.2725 -136.12v-31.7783h-425.084v31.7725c0 58.3564 27.4561 104.995 84.1885 136.124
c24.3574 -18.7393 78.375 -44.1953 128.312 -44.1953c48.3301 0 90.8369 15.3574 128.311 44.1973zM710.341 79.9473c-27.2129 -25.4961 -63.5615 -41.1143 -103.692 -41.1143c-40.1992 0 -76.417 15.584 -103.724 41.1279l-12.9023 12.0703l-16.5576 -6.16309
c-79.5918 -29.626 -136.411 -106.172 -136.411 -196.057v-88.8662h539.271v88.8604c0.0185547 89.9219 -56.8721 166.448 -136.517 196.065l-16.5684 6.16113zM359.06 176.6c-23.7441 -13.9014 -62.5684 -44.9385 -85.084 -76.7373
c-13.2324 -18.6924 -23.542 -38.1123 -31.6465 -59.7764h-170.236v30.9756c0 57.6104 27.2666 103.647 82.9268 134.191c23.791 -18.2832 77.5781 -43.5811 126.873 -43.5811c27.7461 0 45.5508 2.94922 77.167 14.9277zM361.267 241.66
c-23.127 -14.5127 -50.1328 -22.8955 -79.374 -22.8955c-39.5918 0 -75.418 15.3623 -102.327 40.5283l-12.9092 12.0742l-16.5625 -6.1748c-78.7305 -29.3545 -135.094 -105.005 -135.094 -194.131v-88.0684h269.728l5.81738 20.8877
c6.23145 22.3711 16.2822 43.5752 30.0264 62.9893c22.0156 31.0918 51.7393 54.9443 86.5752 69.8145l29.207 12.4678l-15.498 27.7188c-7.83398 14.0117 -13.4902 29.3701 -16.2891 45.4922l-7.27539 41.9033zM869.584 655.417h140.45v-103.983h-140.45v-138.101h-105.733
v138.101h-140.483v103.983h140.483v144.583h105.733v-144.583z" />
    <glyph glyph-name="evt_add_group" unicode="&#xf04f;" 
d="M792.466 246.866c0 -82.3164 -66.6494 -148.982 -148.899 -148.966c-82.2334 0 -148.917 66.666 -148.917 148.966c0 82.2002 66.6836 148.884 148.917 148.884c82.25 0 148.899 -66.667 148.899 -148.884zM312.883 249.95c-82.2334 0 -148.95 66.6494 -148.934 148.883
c0 82.3174 66.6836 148.967 148.934 148.967c82.2666 0 148.9 -66.666 148.9 -148.967c0 -82.2168 -66.6338 -148.883 -148.9 -148.883zM795.767 83.7168c85 -31.6338 145.683 -113.25 145.633 -209.167v-74.5498h-595.733v74.5332
c0 95.9502 60.6836 177.55 145.601 209.184c39.9668 -37.3164 93.3662 -60.2666 152.3 -60.2666c58.8994 0 112.333 22.9502 152.2 60.2666zM332.083 41.917c-19.5166 -27.5508 -33.9004 -57.8506 -42.7832 -89.8174h-274.3v74.4668c0 95.9336 60.6162 177.517 145.6 209.2
c39.8838 -37.2998 93.2832 -60.2998 152.233 -60.2998c43.4502 0 83.9004 12.5664 118.15 34.083c4.25 -24.3496 12.666 -47.3496 24.416 -68.2002c-49.5498 -21.083 -92 -55.1826 -123.316 -99.4326zM874.399 655.417h140.45v-103.983h-140.45v-138.101h-105.733v138.101
h-140.483v103.983h140.483v144.583h105.733v-144.583z" />
    <glyph glyph-name="evt_add_page" unicode="&#xf050;" horiz-adv-x="929" 
d="M773.283 655.417h140.45v-103.983h-140.45v-138.101h-105.733v138.101h-140.483v103.983h140.483v144.583h105.733v-144.583zM164.75 333.05h-149.75l149.75 149.017v-149.017zM215.634 482.066h311.433v-682.066h-512.066v482.217h200.634v199.85z" />
    <glyph glyph-name="evt_add_project" unicode="&#xf051;" horiz-adv-x="980" 
d="M824.55 655.417h140.45v-103.983h-140.45v-138.101h-105.733v138.101h-140.483v103.983h140.483v144.583h105.733v-144.583zM326.65 203.1v-327.983h-311.65v590.417h623.316v-262.434h-311.666zM386.417 35.583v107.817h295.25v-107.817h-295.25zM386.417 -124.884
v107.817h295.25v-107.817h-295.25z" />
    <glyph glyph-name="evt_add_pull" unicode="&#xf052;" horiz-adv-x="993" 
d="M837.816 655.417h140.45v-103.983h-140.45v-138.101h-105.733v138.101h-140.483v103.983h140.483v144.583h105.733v-144.583zM365.25 -146.967l-350.25 350.2h150.1v150.15h400.283v-150.134h150.084zM565.383 403.384h-400.283v100.083h400.283v-100.083z" />
    <glyph glyph-name="evt_add_push" unicode="&#xf053;" horiz-adv-x="993" 
d="M837.816 655.417h140.45v-103.983h-140.45v-138.101h-105.733v138.101h-140.483v103.983h140.483v144.583h105.733v-144.583zM365.233 503.467l350.233 -350.233h-150.084v-150.117h-400.3v150.117h-150.083zM165.083 -46.8838h400.283v-100.083h-400.283v100.083z" />
    <glyph glyph-name="evt_add_repository" unicode="&#xf054;" horiz-adv-x="955" 
d="M799.149 655.417h140.45v-103.983h-140.45v-138.101h-105.733v138.101h-140.483v103.983h140.483v144.583h105.733v-144.583zM322.583 490.2c165.133 0 299.05 -45.9004 299.05 -102.533c0 -56.6504 -133.866 -102.551 -299.05 -102.551
c-165.15 0 -299.033 45.917 -299.033 102.551c0 56.6162 133.899 102.533 299.033 102.533zM322.583 226.017c128.833 0 242.017 21.4336 307.583 65.6338v-382.417c0 -56.5996 -142.45 -102.55 -307.583 -102.55c-165.134 0 -307.583 45.9326 -307.583 102.55v382.417
c65.5664 -44.2002 178.75 -65.6338 307.583 -65.6338z" />
    <glyph glyph-name="evt_add_tag-alt" unicode="&#xf055;" horiz-adv-x="955" 
d="M799.149 655.417h140.45v-103.983h-140.45v-138.101h-105.733v138.101h-140.483v103.983h140.483v144.583h105.733v-144.583zM322.633 491.05l376.733 -376.75l-307.633 -307.633l-376.733 376.767v307.616h307.633zM155.3 294.6
c30.9834 0 56.1494 25.1338 56.1494 56.1338c0 31.0166 -25.166 56.1504 -56.1494 56.1504c-31 0 -56.1338 -25.1338 -56.1338 -56.1504c0 -31 25.1172 -56.1338 56.1338 -56.1338z" />
    <glyph glyph-name="evt_add_tag" unicode="&#xf056;" horiz-adv-x="955" 
d="M799.149 655.417h140.45v-103.983h-140.45v-138.101h-105.733v138.101h-140.483v103.983h140.483v144.583h105.733v-144.583zM322.633 491.05l376.733 -376.767l-307.633 -307.616l-376.733 376.767v307.616h307.633z" />
    <glyph glyph-name="evt_add_user-outline" unicode="&#xf057;" horiz-adv-x="997" 
d="M841.392 655.417h140.45v-103.983h-140.45v-138.101h-105.733v138.101h-140.483v103.983h140.483v144.583h105.733v-144.583zM525.783 118.922c74.0068 -35.1123 128.653 -107.664 128.653 -197.828v-45.4141h-593.351v45.4141c0 87.0977 46.5859 158.892 128.62 197.825
c37.25 -30.8223 102.678 -61.0381 168.031 -61.0381c63.9434 0 120.871 22.0195 168.046 61.041zM505.47 162.446c-38.8096 -36.2432 -90.5479 -58.4785 -147.732 -58.4785c-57.1748 0 -108.891 22.2041 -147.713 58.4756l-10.4131 9.72949l-13.3564 -4.97168
c-99.8965 -37.1797 -171.255 -133.203 -171.255 -246.107v-91.5h685.523v91.5c0 112.905 -71.3613 208.93 -171.291 246.108l-13.3516 4.96777zM357.759 505.75c94.9326 0 171.899 -76.9668 171.899 -171.9c0 -94.9492 -76.9502 -171.899 -171.899 -171.899
c-94.9004 0 -171.867 76.9502 -171.867 171.899c0 94.9004 76.9668 171.9 171.867 171.9zM357.759 218.033c63.9668 0 115.816 51.8164 115.833 115.816c0 63.9668 -51.8662 115.817 -115.833 115.817s-115.817 -51.8506 -115.817 -115.817
c0 -64 51.8672 -115.816 115.817 -115.816z" />
    <glyph glyph-name="evt_add_user" unicode="&#xf058;" horiz-adv-x="998" 
d="M843.05 655.417h140.45v-103.983h-140.45v-138.101h-105.733v138.101h-140.483v103.983h140.483v144.583h105.733v-144.583zM534.767 159.267c98.1338 -36.5332 168.167 -130.75 168.167 -241.55v-86.0166h-687.934v86.0166c0 110.8 70.0166 205.017 168.134 241.55
c46.083 -43.0498 107.8 -69.6162 175.833 -69.6162s129.75 26.5664 175.8 69.6162zM527.441 118.935c74.0029 -35.1211 128.655 -107.68 128.67 -197.86v-45.4102h-593.367v45.4131c0 87.1143 46.5869 158.909 128.622 197.856
c37.2422 -30.8184 102.673 -61.0527 168.029 -61.0527c63.9424 0 120.876 22.0225 168.046 61.0537zM507.124 162.46c-38.8086 -36.2578 -90.5439 -58.4922 -147.729 -58.4922c-57.1699 0 -108.888 22.2178 -147.713 58.4922l-10.415 9.73047l-13.3574 -4.97363
c-99.8936 -37.1973 -171.252 -133.22 -171.252 -246.14v-91.5h685.539v91.5039c-0.0175781 112.918 -71.377 208.94 -171.303 246.137l-13.3564 4.97168zM359.417 505.75c94.9326 0 171.899 -76.9668 171.899 -171.9c0 -94.9492 -76.9502 -171.899 -171.899 -171.899
c-94.9004 0 -171.867 76.9502 -171.867 171.899c0 94.9004 76.9668 171.9 171.867 171.9z" />
    <glyph glyph-name="evt_remove_app" unicode="&#xf059;" horiz-adv-x="980" 
d="M824.55 655.417h140.45v-103.983h-140.45h-105.733h-140.483v103.983h140.483h105.733zM348.333 566.667l333.334 -191.667v-383.333l-333.334 -191.667l-333.333 191.667v383.333zM304.434 -97.4668v265.884l-223.101 128.333v-266.8zM115.667 355.083l223.083 -128.316
l232.3 134.367l-222.3 127.85zM617.083 124.4c-19.6992 9.46582 -19.6992 45.8164 0.0507812 81.3164c3.34961 6.13281 7.16602 11.7334 11.166 16.8994c-4.93359 11.7002 -12.0332 20.834 -21.1836 27.3506c-3.93262 -5.2002 -8.13281 -10.1172 -12.7998 -14.5664
c-26.8828 -25.9336 -54.5166 -25.9336 -61.7666 0c-1.2002 4.33301 -1.7002 9.19922 -1.63281 14.333c-14.0508 -6.5166 -28.0508 -15.6836 -41.7334 -27.2832c0.0498047 -5.2168 -0.450195 -10.8838 -1.68359 -17c-7.2832 -35.3506 -34.9004 -71.75 -61.7998 -81.2002
c-4.61719 -1.65039 -8.90039 -2.2998 -12.7832 -2.2334c-4.36719 -8.91699 -8.5 -18.0664 -12.0332 -27.4336c-3.55078 -9.31641 -6.38379 -18.5 -8.81738 -27.3662c3.90039 0.0166016 7.65039 -0.633789 10.9336 -2.2334
c19.75 -9.4502 19.7168 -45.9004 0.0332031 -81.1836c-3.41699 -6.13281 -7.2002 -11.6836 -11.2002 -16.8662c4.85059 -11.6836 11.9502 -20.9004 20.9502 -27.4502c3.93359 5.15039 8.16699 10.0664 12.7168 14.5166c26.9502 25.8496 54.5996 25.8496 61.7832 0
c1.2832 -4.5332 1.7666 -9.5166 1.7334 -14.7998c13.9668 6.5166 28.2168 15.75 42.0166 27.5c-0.0332031 5.11621 0.450195 10.75 1.68359 16.7666c7.25 35.3994 34.8662 71.75 61.7832 81.2168c4.58301 1.63281 8.7832 2.2832 12.667 2.2168
c4.43262 9.0166 8.56641 18.1992 12.1494 27.5664c3.66699 9.4668 6.5166 18.6836 8.9502 27.7334c-3.9834 -0.100586 -7.7832 0.549805 -11.1836 2.2002z" />
    <glyph glyph-name="evt_remove_attachment" unicode="&#xf05a;" horiz-adv-x="857" 
d="M700.933 655.2h140.634v-104.101h-140.634h-105.883h-140.634v104.101h140.634h105.883zM417.833 444.8c17.1504 0 31.0332 -13.75 31.0664 -30.7666v-399.167c0 -118.75 -97.1494 -214.933 -216.967 -214.933c-119.8 0 -216.933 96.25 -216.933 214.933v0.166992v398.9
v0.166016c0 84.7666 69.333 153.517 154.967 153.517c85.583 0 154.933 -68.75 154.933 -153.566v0.0166016v-399.149c0 -50.834 -41.6328 -92.0674 -92.9492 -92.0674c-51.334 0.0166016 -92.9668 41.1836 -92.9668 92.0674v368.433c0 16.9834 13.8994 30.7002 31 30.7002
c17.0664 0 30.9668 -13.7168 30.9668 -30.7002v-281.683v-86.75c0 -16.9502 13.8662 -30.7334 30.9658 -30.7334c17.1006 0 31 13.7998 31 30.7334l-0.0332031 86.75v189.783l0.0332031 122.566c0 50.8672 -41.6328 92.0996 -92.9834 92.0996
c-51.3496 0.0175781 -92.9658 -41.2158 -92.9658 -92.0996v-122.583v-126.15v-150.283v-0.0996094c0 -84.8008 69.3662 -153.517 154.949 -153.517c85.6006 0 154.967 68.7158 154.967 153.517v0.0332031v150.35v248.816
c-0.0166016 16.9668 13.8672 30.7002 30.9502 30.7002z" />
    <glyph glyph-name="evt_remove_bot" unicode="&#xf05b;" 
d="M874.55 655.417h140.45v-103.983h-140.45h-105.733h-140.483v103.983h140.483h105.733zM438.8 500c192.667 -17.4834 342.867 -158.434 342.867 -329.717c0 -153.45 -114.283 -325.167 -277.917 -362.983c-31.6504 -7.2998 -71.0996 -7.2998 -105.417 -7.2998
c-39.7832 0 -82.0996 -0.883789 -118.199 8.84961c-155.884 42.0342 -265.134 212.733 -265.134 361.45c0 170.834 149.434 311.467 341.434 329.533v-85.25c0 -22.9326 18.4502 -41.5 41.1826 -41.5c22.7842 0 41.1836 18.584 41.1836 41.5v85.417zM530.9 -0.299805
c93.5 0 169.316 76.3662 169.316 170.55c0 94.2168 -75.8164 170.6 -169.316 170.6h-265.134c-93.5 0 -169.316 -76.3994 -169.316 -170.6c0 -94.1504 75.8164 -170.55 169.316 -170.55h265.134zM277.2 282.917c10.5996 0 19.1836 -8.66699 19.166 -19.3008v-164.183
c0 -10.6338 -8.56641 -19.3174 -19.166 -19.3174c-10.5664 0 -19.1504 8.65039 -19.1504 19.3174v164.183c0 10.6338 8.56641 19.3008 19.1504 19.3008zM532.583 283.1c10.5508 0 19.1504 -8.63281 19.1504 -19.3164v-164.184
c0 -10.6328 -8.56641 -19.2998 -19.1504 -19.2998c-10.583 0 -19.166 8.60059 -19.166 19.2998v164.184c0 10.6338 8.56641 19.3164 19.166 19.3164z" />
    <glyph glyph-name="evt_remove_branch" unicode="&#xf05c;" horiz-adv-x="949" 
d="M793.254 655.4h140.45v-103.967h-140.45h-105.733h-140.483v103.967h140.483h105.733zM437.171 -194.267c-34.3672 -12.7666 -78.3164 -4.13379 -107.434 25.0664c-29.2168 29.334 -37.3994 71.6504 -24.7666 108.4l-151.283 151.783
c-36.5996 -12.7002 -78.833 -4.5166 -108.05 24.8662c-40.8506 41 -40.8506 107.384 0 148.367c40.8662 41 107.066 41 147.95 0c30.7324 -30.8838 38.3164 -76.1172 22.75 -114.184l141.083 -141.517l0.0166016 372.483c-9.9502 4.9502 -19.3496 11.5498 -27.6504 19.8496
c-40.8164 40.9668 -40.8164 107.367 0 148.384c40.8838 40.9668 107.134 40.9668 147.917 0c40.8164 -41.0166 40.8164 -107.434 0 -148.384c-10.0996 -10.1162 -21.7998 -17.7666 -34.2832 -22.916v-375.917c12.4834 -5.16699 24.083 -12.75 34.2832 -22.9336
c30.9336 -30.9834 37.7334 -77.6494 22.5664 -114.683c-15.9326 -38.6172 -28.2998 -45.8506 -63.0996 -58.667z" />
    <glyph glyph-name="evt_remove_group-outline" unicode="&#xf05d;" horiz-adv-x="1025" 
d="M606.682 174.738c-42.4248 0 -76.8252 34.4092 -76.8252 76.7266c0 42.4229 34.4385 76.8086 76.8252 76.8086c42.417 0 76.8076 -34.3564 76.8076 -76.8086c0 -42.3379 -34.3838 -76.7266 -76.8076 -76.7266zM606.682 117.645c73.917 0 133.901 59.915 133.901 133.82
c0 73.9863 -59.9785 133.901 -133.901 133.901c-73.8896 0 -133.918 -59.918 -133.918 -133.901c0 -73.8936 60.001 -133.82 133.918 -133.82zM293.367 356.216c-41.9873 0 -75.9775 34.0078 -75.9775 75.9619c0 41.9932 34.0098 75.9619 75.9775 75.9619
c41.9648 0 75.9619 -33.9629 75.9619 -75.9619c0 -41.9561 -33.9941 -75.9619 -75.9619 -75.9619zM293.367 299.123c73.4951 0 133.056 59.5811 133.056 133.055c0 73.5283 -59.5898 133.055 -133.056 133.055c-73.4609 0 -133.071 -59.5205 -133.071 -133.055
c0 -73.4756 59.5645 -133.055 133.071 -133.055zM734.957 25.9395c47.5127 -26.0439 84.2871 -74.4609 84.2744 -136.122v-31.7783h-425.101v31.7725c0 58.3564 27.4561 104.994 84.1895 136.124c24.3623 -18.7412 78.3877 -44.1953 128.312 -44.1953
c48.3447 0 90.8369 15.3564 128.324 44.1992zM710.347 79.9521c-27.2363 -25.5039 -63.5674 -41.1191 -103.714 -41.1191c-40.1826 0 -76.4209 15.5859 -103.725 41.1279l-12.9023 12.0703l-16.5576 -6.16309c-79.5918 -29.626 -136.41 -106.172 -136.41 -196.057v-88.8662
h539.287v88.8604c0.0185547 89.9219 -56.8721 166.448 -136.517 196.065l-16.5635 6.15918zM359.021 176.585c-23.6562 -13.8438 -62.543 -44.9258 -85.0459 -76.707c-13.2412 -18.7168 -23.541 -38.123 -31.6465 -59.792h-170.236v30.9756
c0 57.6104 27.2666 103.647 82.9268 134.191c23.791 -18.2832 77.5781 -43.5811 126.873 -43.5811c27.7275 0 45.5928 2.96484 77.1289 14.9131zM361.267 241.66c-23.127 -14.5127 -50.1328 -22.8955 -79.374 -22.8955c-39.5918 0 -75.418 15.3623 -102.327 40.5283
l-12.9092 12.0742l-16.5625 -6.1748c-78.7305 -29.3545 -135.094 -105.005 -135.094 -194.131v-88.0684h269.728l5.81738 20.8877c6.23047 22.3662 16.2891 43.5859 30.0264 63.0049c22.0156 31.0928 51.7373 54.9424 86.5664 69.7949l29.2217 12.4619l-15.5039 27.7285
c-7.83398 14.0117 -13.4902 29.3701 -16.2891 45.4922l-7.27539 41.9033zM869.584 655.417h140.45v-103.983h-140.45h-105.733h-140.483v103.983h140.483h105.733z" />
    <glyph glyph-name="evt_remove_group" unicode="&#xf05e;" 
d="M792.466 246.866c0 -82.3164 -66.6494 -148.982 -148.916 -148.966c-82.2334 0 -148.917 66.666 -148.917 148.966c0 82.2002 66.6836 148.884 148.917 148.884c82.2666 0 148.916 -66.667 148.916 -148.884zM312.883 249.95
c-82.2334 0 -148.95 66.6494 -148.934 148.883c0 82.3174 66.6836 148.967 148.934 148.967c82.2666 0 148.9 -66.666 148.9 -148.967c0 -82.2168 -66.6338 -148.883 -148.9 -148.883zM795.767 83.7168c85 -31.6338 145.683 -113.233 145.616 -209.167v-74.5498h-595.733
v74.5332c0 95.9336 60.6836 177.55 145.601 209.184c39.9658 -37.3164 93.3828 -60.2666 152.3 -60.2666c58.8994 0 112.333 22.9502 152.217 60.2666zM332.083 41.9336c-19.5166 -27.584 -33.9004 -57.8672 -42.7832 -89.834h-274.3v74.4668
c0 95.9336 60.6162 177.533 145.6 209.217c39.8838 -37.2998 93.2832 -60.3164 152.233 -60.3164c43.4502 0 83.9004 12.583 118.15 34.0996c4.25 -24.3662 12.666 -47.3496 24.416 -68.2168c-49.5498 -21.083 -92 -55.1826 -123.316 -99.416zM874.399 655.417h140.45
v-103.983h-140.45h-105.733h-140.483v103.983h140.483h105.733z" />
    <glyph glyph-name="evt_remove_page" unicode="&#xf05f;" horiz-adv-x="929" 
d="M773.283 655.417h140.45v-103.983h-140.45h-105.733h-140.483v103.983h140.483h105.733zM164.75 333.05h-149.75l149.75 149.017v-149.017zM215.634 482.066h311.433v-682.066h-512.066v482.233h200.634v199.833z" />
    <glyph glyph-name="evt_remove_project" unicode="&#xf060;" horiz-adv-x="980" 
d="M824.55 655.417h140.45v-103.983h-140.45h-105.733h-140.483v103.983h140.483h105.733zM326.65 203.1v-327.983h-311.65v590.417h623.3v-262.434h-311.649zM386.417 35.583v107.817h295.25v-107.817h-295.25zM386.417 -124.884v107.834h295.25v-107.834h-295.25z" />
    <glyph glyph-name="evt_remove_pull" unicode="&#xf061;" horiz-adv-x="993" 
d="M837.816 655.417h140.45v-103.983h-140.45h-105.733h-140.483v103.983h140.483h105.733zM365.25 -146.967l-350.25 350.184h150.1v150.167h400.283v-150.134h150.084zM565.383 403.384h-400.283v100.083h400.283v-100.083z" />
    <glyph glyph-name="evt_remove_push" unicode="&#xf062;" horiz-adv-x="993" 
d="M837.816 655.417h140.45v-103.983h-140.45h-105.733h-140.483v103.983h140.483h105.733zM365.233 503.467l350.233 -350.25h-150.084v-150.083h-400.3v150.083h-150.083zM165.083 -46.8662h400.3v-100.101h-400.3v100.101z" />
    <glyph glyph-name="evt_remove_repository" unicode="&#xf063;" horiz-adv-x="955" 
d="M799.149 655.417h140.45v-103.983h-140.45h-105.733h-140.483v103.983h140.483h105.733zM322.583 490.2c165.133 0 299.05 -45.9004 299.05 -102.533c0 -56.6504 -133.85 -102.533 -299.05 -102.533c-165.15 0 -299.033 45.8994 -299.033 102.533
c0 56.6162 133.899 102.533 299.033 102.533zM322.583 226.017c128.833 0 242.017 21.4502 307.583 65.6338v-382.4c0 -56.5996 -142.45 -102.566 -307.583 -102.566c-165.134 0 -307.583 45.9502 -307.583 102.566v382.4
c65.5664 -44.1836 178.75 -65.6338 307.583 -65.6338z" />
    <glyph glyph-name="evt_remove_tag-alt" unicode="&#xf064;" horiz-adv-x="955" 
d="M799.149 655.417h140.45v-103.983h-140.45h-105.733h-140.483v103.983h140.483h105.733zM322.633 491.05l376.733 -376.767l-307.633 -307.616l-376.733 376.767v307.616h307.633zM155.3 294.6c30.9834 0 56.1494 25.1338 56.1494 56.1338
c0 31.0166 -25.166 56.1504 -56.1494 56.1504c-31 0 -56.1338 -25.1338 -56.1338 -56.1504c0 -31 25.1172 -56.1338 56.1338 -56.1338z" />
    <glyph glyph-name="evt_remove_tag" unicode="&#xf065;" horiz-adv-x="955" 
d="M552.933 655.417h386.667v-103.983h-386.667v103.983zM322.633 491.05l376.733 -376.767l-307.633 -307.616l-376.733 376.767v307.616h307.633z" />
    <glyph glyph-name="evt_remove_user-outline" unicode="&#xf066;" horiz-adv-x="997" 
d="M841.392 655.417h140.45v-103.983h-140.45h-105.733h-140.483v103.983h140.483h105.733zM525.783 118.922c74.0068 -35.1123 128.653 -107.664 128.653 -197.828v-45.3975h-593.351v45.3975c0 87.0977 46.5859 158.892 128.62 197.825
c37.25 -30.8223 102.678 -61.0381 168.031 -61.0381c63.9434 0 120.871 22.0195 168.046 61.041zM505.47 162.446c-38.8096 -36.2432 -90.5479 -58.4785 -147.732 -58.4785c-57.1748 0 -108.891 22.2041 -147.713 58.4756l-10.4131 9.72949l-13.3564 -4.97168
c-99.8965 -37.1797 -171.255 -133.203 -171.255 -246.107v-91.4844h685.523v91.4844c0 112.905 -71.3613 208.93 -171.291 246.108l-13.3516 4.96777zM357.759 505.75c94.9326 0 171.899 -76.9668 171.899 -171.9c0 -94.9492 -76.9502 -171.899 -171.899 -171.899
c-94.9004 0 -171.867 76.9502 -171.867 171.899c0 94.9004 76.9668 171.9 171.867 171.9zM357.759 218.033c63.9668 0 115.816 51.8164 115.833 115.816c0 63.9668 -51.8662 115.817 -115.833 115.817s-115.817 -51.8506 -115.817 -115.817
c0 -64 51.8672 -115.816 115.817 -115.816z" />
    <glyph glyph-name="evt_remove_user" unicode="&#xf067;" horiz-adv-x="998" 
d="M843.05 655.417h140.45v-103.983h-140.45h-105.733h-140.483v103.983h140.483h105.733zM534.767 159.283c98.1338 -36.5498 168.167 -130.767 168.167 -241.583v-86h-687.934v86c0 110.816 70.0166 205.033 168.134 241.583
c46.083 -43.0664 107.8 -69.6328 175.833 -69.6328s129.75 26.5664 175.8 69.6328zM527.441 118.922c74.0068 -35.1123 128.653 -107.664 128.653 -197.828v-45.4141h-593.351v45.4141c0 87.0977 46.5859 158.892 128.62 197.825
c37.25 -30.8223 102.678 -61.0381 168.031 -61.0381c63.9434 0 120.871 22.0195 168.046 61.041zM507.128 162.446c-38.8096 -36.2432 -90.5479 -58.4785 -147.732 -58.4785c-57.1748 0 -108.891 22.2041 -147.713 58.4756l-10.4131 9.72949l-13.3564 -4.97168
c-99.8965 -37.1797 -171.255 -133.203 -171.255 -246.107v-91.5h685.523v91.5c0 112.905 -71.3613 208.93 -171.291 246.108l-13.3516 4.96777zM359.417 505.75c94.9326 0 171.899 -76.9668 171.899 -171.9c0 -94.9492 -76.9502 -171.899 -171.899 -171.899
c-94.9004 0 -171.867 76.9502 -171.867 171.899c0 94.9004 76.9668 171.9 171.867 171.9z" />
    <glyph glyph-name="feed" unicode="&#xf068;" 
d="M15 -82.917c0 33.1006 11.4336 61.1006 34.4336 83.6836c22.9834 23.0166 51.1162 34.4834 84.3496 34.4834c32.4336 0 59.9668 -11.4668 82.5498 -34.4834c22.9834 -22.5664 34.4336 -50.5166 34.4336 -83.6836c0 -32.4492 -11.4668 -60.1826 -34.4336 -83.2334
c-22.583 -22.5166 -50.1162 -33.8496 -82.5498 -33.8496c-33.2168 0 -61.3994 11.2998 -84.3496 33.8496c-22.9668 22.6006 -34.4336 50.2842 -34.4336 83.2334zM15.2002 244.667l-0.0166016 177.5c354.25 0 621.767 -266.733 621.767 -621.25h-173.634
c0 247.533 -200.816 443.75 -448.116 443.75zM15.5332 800c551.283 0 999.467 -447.333 999.467 -998.767l-166.634 -0.316406c0 440.533 -392.732 832.566 -833.166 832.566z" />
    <glyph glyph-name="fullscreen" unicode="&#xf069;" 
d="M15 616.667h1000v-633.334h-1000v633.334zM952.5 173.333v380h-375z" />
    <glyph glyph-name="git" unicode="&#xf06a;" 
d="M996.083 344.45c25.1836 -25.084 25.1836 -65.834 0.0166016 -90.9336l-434.55 -433.783c-25.1826 -25.1338 -65.9502 -25.1338 -91.083 0l-436.617 435.783c-25.1328 25.1504 -25.1328 65.833 0 90.9668l299.384 298.866l113.384 -113.183
c-11.6338 -27.8008 -6.18359 -61.0508 16.5 -83.667c7.36621 -7.43359 15.916 -12.9668 25.0664 -16.6836v-274.133c-9.13379 -3.7334 -17.6836 -9.2998 -25.0664 -16.6836c-29.9502 -29.8838 -29.9502 -78.2666 0 -108.184c29.8828 -29.8496 78.3828 -29.8496 108.333 0
c29.9502 29.917 29.9502 78.2998 0 108.184c-6.08301 6.0332 -12.9834 10.8164 -20.2832 14.4668l-0.0166016 271.533l103.366 -103.167c-11.3994 -27.6992 -5.7998 -60.6826 16.6836 -83.1992c29.9834 -29.917 78.4668 -29.917 108.383 0
c29.9502 29.8828 29.9502 78.2832 0 108.166c-21.3496 21.3838 -52.3164 27.3838 -79.1162 18.1338l-110.884 110.666c9.28418 26.7666 3.25 57.6504 -18.1328 79.0166c-21.2998 21.3008 -51.9502 27.3506 -78.6836 18.3174l-115 114.833l90.6504 90.5332
c25.166 25.1006 65.916 25.1006 91.0664 0z" />
    <glyph glyph-name="group-alt-outline" unicode="&#xf06b;" horiz-adv-x="1023" 
d="M566.433 356.445c0 -31.4512 -25.5088 -56.9434 -56.9756 -56.9434c-31.4824 0 -56.9756 25.4873 -56.9756 56.9434c0 31.4365 25.5137 56.9434 56.9756 56.9434s56.9756 -25.5068 56.9756 -56.9434zM626.31 356.445c0 64.5273 -52.3506 116.82 -116.853 116.82
s-116.853 -52.293 -116.853 -116.82c0 -64.54 52.3389 -116.82 116.853 -116.82c64.4971 0 116.853 52.2754 116.853 116.82zM250.993 449.209c-31.1113 0 -56.292 25.1982 -56.292 56.2764c0 31.123 25.166 56.2754 56.292 56.2754
c31.1016 0 56.292 -25.1875 56.292 -56.2754c0 -31.083 -25.2061 -56.2764 -56.292 -56.2764zM250.993 389.332c64.1289 0 116.169 51.9883 116.169 116.153c0 64.1592 -52.0225 116.152 -116.169 116.152c-64.1533 0 -116.169 -51.9639 -116.169 -116.152
c0 -64.1377 52.001 -116.153 116.169 -116.153zM616.044 162.806c34.6211 -21.082 62.3916 -57.5479 62.3682 -104.75v-19.8164h-337.877v19.8008c0 44.0703 18.3291 77.915 62.3594 104.76c19.2627 -13.7451 65.1494 -35.2842 106.562 -35.2842
c39.8467 0 71.5479 10.2734 106.587 35.29zM590.661 219.549c-21.3506 -19.9805 -49.7529 -32.1562 -81.2041 -32.1562c-31.4434 0 -59.7988 12.1621 -81.2236 32.1748l-13.5391 12.6455l-17.3584 -6.47266c-68.0391 -25.373 -116.678 -90.7754 -116.678 -167.7v-79.6777
h457.631v79.6631c0.0390625 76.9443 -48.6709 142.419 -116.739 167.726l-17.3633 6.45508zM229.827 235.025c-10.4268 -14.6914 -17.3135 -26.9561 -25.3262 -46.623h-129.624v19.1982c0 43.4502 18.2627 76.9424 61.2871 103.149
c18.7021 -13.3652 64.4375 -34.8457 105.373 -34.8457c11.1094 0 8.11719 -0.421875 28.2539 2.1748c-4.27832 -3.62891 -29.0283 -27.6182 -39.9639 -43.0537zM278.671 200.392c17.5068 24.7119 41.0391 43.6299 68.6816 55.3945l30.7344 13.0801l-16.3525 29.124
c-6.1416 10.9375 -10.5127 22.8896 -12.707 35.5088l-7.65234 44.0029l-37.7959 -23.7988c-18.0312 -11.3545 -39.1836 -17.9219 -62.042 -17.9219c-30.9912 0 -58.9424 11.9854 -80.0254 31.7266l-13.5352 12.6738l-17.376 -6.47168
c-67.375 -25.0918 -115.601 -89.8467 -115.601 -166.109v-79.0752h233.74l6.0957 21.9141c4.93164 17.7246 12.9316 34.5879 23.835 49.9521zM828.525 505.485c0 -31.1006 -25.1641 -56.2871 -56.3447 -56.3086c-31.0889 0 -56.2715 25.1689 -56.2715 56.3086
c0 31.1133 25.1963 56.2754 56.292 56.2754c31.1328 0 56.3242 -25.2236 56.3242 -56.2754zM888.402 505.485c0 64.1299 -52.0215 116.152 -116.201 116.152c-64.1191 0 -116.169 -51.9541 -116.169 -116.152c0 -64.1738 51.9658 -116.186 116.189 -116.186
c64.1641 0.0439453 116.181 52.0059 116.181 116.186zM818.736 188.354c0 0 -15.4248 32.7207 -25.3408 46.6699c-11.6592 16.4209 -20.9111 26.8555 -39.9727 43.0234c0 0 19.1045 -2.1748 28.2676 -2.1748c39.3828 0 71.0205 10.3291 105.364 34.8633
c33.7793 -20.585 61.2793 -56.6113 61.2793 -103.184v-19.1982h-129.598zM774.44 128.477h233.771v79.0752c0 76.251 -48.1836 141.028 -115.579 166.141l-17.3662 6.4707l-13.5361 -12.6592c-21.1357 -19.7656 -49.0791 -31.7549 -80.0391 -31.7549
c-22.8916 0 -43.9785 6.55371 -62.0869 17.9453l-37.8467 23.8076l-7.59668 -44.0625c-2.16211 -12.5381 -6.5293 -24.5098 -12.6807 -35.4316l-16.4102 -29.1396l30.7705 -13.0977c27.6758 -11.7803 51.1787 -30.6865 68.7549 -55.4424
c10.8789 -15.3018 18.8516 -32.1328 23.7695 -49.8994z" />
    <glyph glyph-name="group-alt" unicode="&#xf06c;" 
d="M636.283 358.233c0 -65.7334 -53.2832 -119 -119.05 -119.05c-65.7168 0 -119 53.3164 -119 119.05c0 65.7168 53.2998 119 119 119c65.75 0 119.05 -53.2998 119.05 -119zM253.017 360.733c-65.7334 0 -119 53.2666 -119.017 119.017c0 65.7334 53.2998 119 119.017 119
c65.7666 0 119.017 -53.2832 119.017 -119c0 -65.75 -53.2998 -119.017 -119.017 -119.017zM777.017 360.733c-65.7666 0 -119.033 53.2666 -119.017 119.017c0 65.7334 53.2998 119 119.017 119c65.7666 0 119.017 -53.2832 119.017 -119
c0 -65.75 -53.2998 -119.017 -119.017 -119.017zM638.934 227.917c67.8828 -25.3174 116.383 -90.5166 116.399 -167.134v-59.4834h-476.017v59.4834c0 76.6172 48.4668 141.851 116.317 167.134c31.8994 -29.8174 74.5996 -48.1836 121.666 -48.1836
c47.0498 0 89.7666 18.3662 121.634 48.1836zM898.667 349.384c67.8496 -25.2676 116.333 -90.4834 116.333 -167.15v-59.5166h-214.616c-7.06738 25.5498 -18.5674 49.7334 -34.1836 71.7666c-25.0664 35.333 -58.9668 62.5996 -98.5664 79.4336
c8.98242 15.9834 15.5 33.4834 19.0498 52.0332c26.5 -15.6836 57.333 -24.7168 90.333 -24.7168c47.0332 0 89.7832 18.3662 121.65 48.1504zM268.366 194.5c-15.5996 -22 -27.0996 -46.2334 -34.1992 -71.7334h-219.167v59.5c0 76.6172 48.4502 141.833 116.333 167.134
c31.9004 -29.7842 74.6006 -48.167 121.65 -48.167c34.7666 0 67.083 10.0498 94.4668 27.25c3.41602 -19.4502 10.1162 -37.8496 19.4834 -54.5166c-39.584 -16.8506 -73.5166 -44.1338 -98.5674 -79.4668z" />
    <glyph glyph-name="group-outline" unicode="&#xf06d;" horiz-adv-x="1029" 
d="M795.42 379.899c0 -51.377 -41.6201 -93.0049 -93.0693 -93.0049c-51.3398 0 -93.0039 41.6279 -93.0039 93.0049c0 51.334 41.6963 92.9873 93.0039 92.9873c51.3887 0 93.0693 -41.6445 93.0693 -92.9873zM855.375 379.899
c0 84.4971 -68.5723 152.942 -153.024 152.942c-84.4014 0 -152.959 -68.4697 -152.959 -152.942c0 -84.4961 68.5244 -152.96 152.959 -152.96c84.5215 0 153.024 68.4639 153.024 152.96zM336.612 498.76c-50.8838 0 -92.0605 41.1934 -92.0605 92.0439
c0 50.8711 41.1953 92.0283 92.0605 92.0283c50.8613 0 92.0596 -41.1729 92.0596 -92.0283c0 -50.8428 -41.207 -92.0439 -92.0596 -92.0439zM336.612 438.805c83.9453 0 152.015 68.0449 152.015 151.999c0 83.9756 -68.0781 151.983 -152.015 151.983
c-83.9336 0 -152.016 -67.9902 -152.016 -151.983c0 -83.9473 68.0361 -151.999 152.016 -151.999zM851.791 120.421c58.5312 -31.2773 102.119 -89.0059 102.093 -162.825v-40.4434h-502.968v40.4326c0 70.083 33.2988 126.045 102.051 162.834
c30.3262 -23.5898 91.2441 -52.1709 149.384 -52.1709c56.4287 0 105.037 17.5986 149.44 52.1729zM825.767 177.099c-32.4248 -30.3379 -75.6289 -48.8955 -123.416 -48.8955c-47.7588 0 -90.8672 18.5381 -123.406 48.917l-13.5508 12.6514l-17.3721 -6.47168
c-91.5918 -34.1221 -157.061 -122.228 -157.061 -225.715v-100.388h622.878v100.377c0.0371094 103.549 -65.4678 191.633 -157.141 225.73l-17.3867 6.46777zM316.688 200.854c-16.7354 -23.6729 -19.7129 -27.3965 -37.5488 -71.2012h-204.185v39.5537
c0 69.2363 33.0303 124.479 100.546 160.573c29.5947 -23.0518 90.2461 -51.4883 147.732 -51.4883c29.166 0 61.6006 2.88574 90.4814 14.4014c-19.3174 -10.6992 -72.9902 -57.9541 -97.0264 -91.8389zM365.617 166.204c26.127 36.833 61.3184 65.0928 102.487 82.6328
l30.7246 13.0908l-16.3203 29.1377c-9.34863 16.6914 -16.043 34.9531 -19.3896 54.2051l-7.65723 44.0537l-37.8438 -23.8164c-27.4053 -17.2461 -59.6582 -27.2617 -94.3848 -27.2617c-47.1582 0 -89.7715 18.2998 -121.733 48.2217l-13.5527 12.6875l-17.3965 -6.47949
c-90.6738 -33.7705 -155.551 -120.869 -155.551 -223.47v-99.5088h309.007l6.10254 21.9453c7.37109 26.5078 19.2891 51.6201 35.5078 74.5615z" />
    <glyph glyph-name="group" unicode="&#xf06e;" 
d="M854.233 378.333c0 -88.3994 -71.9502 -160.066 -160.767 -160.066s-160.767 71.667 -160.767 160.066c0 88.3838 71.9668 160.051 160.767 160.051s160.767 -71.667 160.767 -160.051zM336.517 381.667c-88.7998 0 -160.767 71.666 -160.75 160.066
c0 88.417 71.9834 160.066 160.75 160.066c88.833 0 160.767 -71.6494 160.767 -160.066c0 -88.4004 -71.9668 -160.066 -160.767 -160.066zM857.8 203.066c91.7002 -34.0498 157.233 -121.75 157.2 -224.8v-80.0498h-643.033v80.0498c0 103.05 65.5 190.816 157.167 224.8
c43.0996 -40.1162 100.783 -64.8164 164.35 -64.8164s121.25 24.7168 164.316 64.8164zM357.25 158.1c-21.083 -29.5996 -36.5996 -62.166 -46.1836 -96.5498h-296.066v80.0664c0 103.084 65.4668 190.768 157.167 224.768
c43.0664 -40.0508 100.75 -64.7842 164.333 -64.7842c46.917 0 90.5664 13.5 127.55 36.6504c4.61719 -26.1836 13.667 -50.8662 26.334 -73.3164c-53.4834 -22.6172 -99.2842 -59.2998 -133.134 -106.834z" />
    <glyph glyph-name="help-alt" unicode="&#xf06f;" 
d="M564.866 210h-110.583v26.8662c0 54.5674 31.1836 87.9668 74.6338 116.983c45.6494 30.4668 53.2998 48.2666 53.2998 66.7666c0 37.084 -30.9004 65.0342 -71.9004 65.0342c-37.7832 0 -66.1328 -31.417 -79 -58.3008l-97.8164 44.7842
c28.583 59.8496 91.0664 123.816 180.75 123.816c102.217 0 182.25 -76.5498 182.25 -174.3c0 -75.6504 -50.2334 -109.483 -106.934 -143.7c-22.6494 -15.0664 -24.7334 -27.8164 -24.7334 -49.0166v-18.9336h0.0332031zM454.517 26.9336v115.366h120.967v-115.366
h-120.967zM515 800c276.134 0 500 -223.866 500 -500s-223.866 -500 -500 -500s-500 223.866 -500 500s223.866 500 500 500zM515 -116.667c230.116 0 416.667 186.517 416.667 416.667c0 230.116 -186.551 416.667 -416.667 416.667s-416.667 -186.551 -416.667 -416.667
s186.551 -416.667 416.667 -416.667z" />
    <glyph glyph-name="help" unicode="&#xf070;" horiz-adv-x="666" 
d="M420.55 121.717h-193.783v47.2334c0 95.8994 54.6494 154.6 130.767 205.566c80.0166 53.5498 93.3994 84.8672 93.3994 117.384c0 65.1494 -54.1328 114.283 -126.017 114.283c-66.2168 0 -115.916 -55.2002 -138.467 -102.467l-171.449 78.6836
c50.0664 105.183 159.583 217.6 316.8 217.6c179.166 0 319.433 -134.533 319.433 -306.35c0 -132.95 -88 -192.417 -187.449 -252.534c-39.7168 -26.4824 -43.334 -48.8828 -43.334 -86.166v-33.2334h0.100586zM227.133 -200v202.75h212.017v-202.75h-212.017z" />
    <glyph glyph-name="hook" unicode="&#xf071;" 
d="M947.305 333.184l-232.217 -232.233c-67.7666 -67.75 -167.517 -85.417 -252.116 -53.0498c-29.8506 11.5664 -57.8838 29.1992 -81.7002 53.0498l-65.2998 65.333l99.5498 99.5332l65.2998 -65.3496c36.5166 -36.4834 98.2666 -36.4834 134.8 0l232.268 232.25
c36.4658 36.4668 34.3994 96.2002 -2.08398 132.7l-66.3662 66.3496c-36.5498 36.5 -94.1172 36.5 -130.667 0l-1.0332 -1.0332l-33.9834 -34c-75.9004 52.6504 -165.033 34 -165.033 34l100.55 100.55c91.6338 91.6172 237.983 91.6504 329.634 0l66.3164 -66.3496
c91.667 -91.667 93.7334 -240.101 2.08301 -331.75zM415.321 0.200195c77.3506 -51.2334 166.067 -33 166.033 -32.9834l-98.4658 -98.4502c-91.667 -91.6504 -242.184 -91.6504 -333.834 0l-66.3496 66.333c-91.6338 91.6338 -89.584 240.084 2.08301 331.717
l232.233 232.233c68.417 68.417 167.3 85.6836 251.066 52.0498c28.417 -11.416 55.3672 -28.8164 78.584 -52.0498l66.3828 -66.3496c0.433594 -0.416992 0.617188 -0.617188 1.0332 -1.0332l-99.5166 -99.5166c-0.432617 0.399414 -0.632812 0.599609 -1.0332 1.0332
l-66.3496 66.3496c-36.5674 36.4834 -94.1836 36.4834 -130.667 0l-1.0166 -1.0332l-231.184 -231.184c-36.4668 -36.5 -38.5498 -96.2002 -2.0498 -132.717l66.3164 -66.333c36.5332 -36.5166 98.3008 -36.5166 134.801 0z" />
    <glyph glyph-name="image-new" unicode="&#xf072;" 
d="M224.5 97.5332v155.384l152.9 155.433l305.767 -310.816h-458.667zM717.7 502.483c48.4668 0 87.7998 -39.333 87.7998 -87.7998s-39.2666 -87.7832 -87.7998 -87.7832c-48.4336 0 -87.7998 39.2998 -87.7998 87.7832c0.0332031 48.4668 39.3662 87.7998 87.7998 87.7998
zM855.833 517.083v76.25c0 5.55078 0.350586 10.9668 1.0332 16.25c0.683594 5.2666 1.86719 10.2666 3.55078 15c-3.06738 -3.88281 -6.65039 -7.36621 -10.8174 -10.416c-4.16602 -3.06738 -8.61621 -6.11719 -13.333 -9.16699l-65.833 -38.333l-24.6006 41.666
l66.2666 38.334c5 3.0498 9.93359 5.5498 14.8008 7.5c4.84961 1.94922 9.93262 3.33301 15.1992 4.16602c-5.2666 0.550781 -10.3496 1.9502 -15.1992 4.16699c-4.86719 2.2168 -9.80078 4.86621 -14.8008 7.91699l-66.2666 38.75l24.1504 41.666l66.2832 -39.166
c4.7168 -3.06738 9.2334 -6.18359 13.5332 -9.36719c4.31641 -3.2002 7.9834 -6.7334 11.0332 -10.6328c-1.93262 4.7168 -3.2666 9.7168 -3.94922 15c-0.683594 5.2666 -1.03418 10.6992 -1.03418 16.25v77.083h49.167v-76.25
c0 -5.83301 -0.349609 -11.4668 -1.0332 -16.8838c-0.700195 -5.41602 -2.0166 -10.4824 -3.93359 -15.2158c3.0498 3.88281 6.63379 7.43262 10.7998 10.6328c4.16699 3.18359 8.75 6.31641 13.75 9.36719l65.834 38.333l24.5664 -41.6504l-66.25 -37.916
c-5.0166 -3.06738 -9.9668 -5.61719 -14.8164 -7.7002c-4.85059 -2.08301 -9.91699 -3.5332 -15.1836 -4.38379c9.43359 -1.66602 19.4336 -5.5498 30.0166 -11.666l66.2334 -38.75l-24.167 -41.667l-66.25 38.75c-5 3.0498 -9.58301 6.09961 -13.75 9.16699
c-4.16602 3.0498 -7.91602 6.5332 -11.25 10.416c3.61719 -8.89941 5.41699 -19.166 5.41699 -30.833v-76.667h-49.167zM875.95 28.75v401.8h139.05v-539.733h-1000v818.367h630.55v-137.934h-491.5v-542.5h721.9z" />
    <glyph glyph-name="image" unicode="&#xf073;" 
d="M15 709.184h1000v-818.367h-1000v818.367zM875.95 28.75v542.5h-721.9v-542.5h721.9zM224.5 97.5166v155.4l152.9 155.433l305.767 -310.833h-458.667zM717.7 502.483c48.4668 0 87.7998 -39.333 87.7998 -87.7998s-39.2832 -87.7832 -87.7998 -87.7832
c-48.4336 0 -87.7998 39.2998 -87.7998 87.7832c0.0332031 48.4668 39.3662 87.7998 87.7998 87.7998z" />
    <glyph glyph-name="info-alt" unicode="&#xf074;" horiz-adv-x="471" 
d="M357.417 -96.9004l98.166 -22.0498l-0.0498047 -81.0498h-440.467v81.5l103.167 20.4834l-0.100586 435.65l-103.133 -0.183594l0.0996094 90.0498l342.25 38.0332zM322.1 759.85c25.5674 -24.1328 38.2832 -53.2666 38.2998 -87.25
c0 -34.0166 -12.7666 -63 -38.2832 -86.9492c-25.583 -23.9668 -56.2832 -35.9336 -92.25 -35.9336s-66.8496 11.9668 -92.5664 35.9336c-25.7832 23.9492 -38.6328 52.9326 -38.6328 86.9492s12.8496 63.1172 38.6328 87.2666
c25.7168 24.167 62.3496 40.1338 98.333 40.1338s60.9004 -15.9668 86.4668 -40.1504z" />
    <glyph glyph-name="info-circle" unicode="&#xf075;" 
d="M515 800c276.134 0 500 -223.866 500 -500s-223.866 -500 -500 -500s-500 223.866 -500 500s223.866 500 500 500zM515 -150c248.517 0 450 201.45 450 450c0 248.533 -201.483 450 -450 450c-248.533 0 -450 -201.467 -450 -450c0 -248.517 201.467 -450 450 -450z
M591.95 117.684c7.18359 1.9834 12.333 3.7666 15.5166 5.34961l-6.2168 -25.7998c-18.667 -7.4502 -33.5664 -13.1338 -44.7002 -17.0332c-11.1162 -3.91699 -24.0332 -5.88379 -38.75 -5.88379c-22.6162 0 -40.2168 5.58398 -52.7334 16.7832
c-12.5166 11.1504 -18.7998 25.3672 -18.7998 42.5508c0 6.69922 0.483398 13.5166 1.41699 20.4834c0.932617 7 2.4668 14.8662 4.5332 23.666l23.3496 83.6836c2.10059 8.0166 3.85059 15.6162 5.25 22.7998c1.41699 7.15039 2.13379 13.7002 2.13379 19.6172
c0 10.6826 -2.18359 18.1328 -6.5332 22.333c-4.36719 4.2168 -12.667 6.31641 -24.9668 6.31641c-6.0498 0 -12.25 -0.966797 -18.5664 -2.88281c-6.33398 -1.91699 -11.7676 -3.7168 -16.3008 -5.4502l6.2334 25.7832c15.2666 6.31641 29.9004 11.7168 43.8672 16.2002
s27.166 6.75 39.6494 6.75c22.4668 0 39.7832 -5.5 51.9502 -16.4834c12.2002 -10.9834 18.2832 -25.2998 18.2832 -42.8506c0 -3.63281 -0.416016 -10.0498 -1.2832 -19.2158c-0.833008 -9.16699 -2.36621 -17.6006 -4.64941 -25.2334l-23.25 -83.417
c-1.93359 -6.66699 -3.63379 -14.3164 -5.11719 -22.9336c-1.5166 -8.59961 -2.2832 -15.0996 -2.2832 -19.4668c0 -11.0996 2.4668 -18.6494 7.34961 -22.666c4.88379 -4.0166 13.3506 -6.0332 25.4004 -6.0332c5.65039 0 12.0498 1.0166 19.2168 3.0332zM597.184 510.184
c10.8164 -10.2998 16.25 -22.7334 16.2666 -37.2334c0 -14.5498 -5.4502 -26.917 -16.2666 -37.1338c-10.8506 -10.2002 -23.917 -15.333 -39.1836 -15.333c-15.2832 0 -28.4004 5.11621 -39.2998 15.333c-10.9502 10.2334 -16.4336 22.6006 -16.4336 37.1338
c0 14.5 5.4834 26.916 16.4336 37.2334c10.9336 10.333 24.0332 15.5 39.2998 15.5s28.3496 -5.16699 39.1836 -15.5z" />
    <glyph glyph-name="info" unicode="&#xf076;" horiz-adv-x="466" 
d="M403.566 -103.9c15.9004 4.41699 27.333 8.36719 34.25 11.8672l-13.7832 -57.1338c-41.334 -16.5166 -74.334 -29.0996 -98.9834 -37.7666c-24.6338 -8.64941 -53.2334 -13.0166 -85.833 -13.0166c-50.1006 0 -89.0674 12.3838 -116.834 37.1504
c-27.7334 24.7334 -41.6328 56.1836 -41.6328 94.2666c0 14.8164 1.0498 29.917 3.13281 45.3828c2.08398 15.5 5.4668 32.917 10.0332 52.417l51.7334 185.417c4.61719 17.7666 8.5 34.5996 11.6338 50.4834c3.13281 15.8496 4.7002 30.3496 4.7002 43.4668
c0 23.6992 -4.81738 40.1992 -14.4502 49.5166c-9.63379 9.31641 -28.0166 13.9658 -55.2832 13.9658c-13.3672 0 -27.1172 -2.13281 -41.1338 -6.38281c-14.0332 -4.2002 -26.0664 -8.25 -36.1162 -12.0498l13.7832 57.0996
c33.8496 14.0332 66.2832 25.9668 97.2168 35.9004c30.9834 9.9502 60.2168 14.9326 87.8496 14.9326c49.7666 0 88.0996 -12.1826 115.1 -36.5166c27 -24.3496 40.4668 -56.0166 40.4668 -94.916c0 -8.0498 -0.932617 -22.2666 -2.84961 -42.584
c-1.86719 -20.3164 -5.25 -38.9658 -10.2998 -55.8662l-51.5166 -184.8c-4.2002 -14.8174 -8 -31.7334 -11.3174 -50.8174c-3.33301 -19.0498 -5.0166 -33.4326 -5.0166 -43.1328c0 -24.583 5.4502 -41.3164 16.2832 -50.2002
c10.834 -8.91699 29.6006 -13.3496 56.3008 -13.3496c12.5 0 26.7168 2.2002 42.5664 6.66602zM415.133 765.667c24.0166 -22.8506 36.0166 -50.3838 36.0166 -82.5c0 -32.2168 -12 -59.6172 -36.0166 -82.25c-24.0166 -22.6338 -52.9502 -33.9834 -86.7832 -33.9834
s-62.9004 11.3496 -87.083 33.9834c-24.25 22.6494 -36.3672 50.0332 -36.3672 82.25c0 32.1328 12.1172 59.6494 36.3672 82.5c24.2334 22.8828 53.2666 34.3164 87.083 34.3164c33.833 0 62.7666 -11.4336 86.7832 -34.3164z" />
    <glyph glyph-name="interaction-double-down" unicode="&#xf077;" 
d="M514.983 -37.6338l418.517 416.934l81.4834 -81.1836l-500 -498.116l-499.983 498.116l81.5 81.1836zM514.983 383.1l418.517 416.9l81.4834 -81.1836l-500 -498.116l-499.983 498.116l81.5 81.1836z" />
    <glyph glyph-name="interaction-double-left" unicode="&#xf078;" 
d="M177.384 300.017l416.916 -418.533l-81.1836 -81.4834l-498.116 500.017l498.116 499.983l81.1836 -81.5166zM598.066 300.017l416.934 -418.533l-81.1836 -81.4834l-498.116 500.017l498.116 499.983l81.1836 -81.5166z" />
    <glyph glyph-name="interaction-double-right" unicode="&#xf079;" 
d="M852.634 299.983l-416.934 418.517l81.1836 81.4834l498.116 -500l-498.116 -499.983l-81.1836 81.5166zM431.9 299.983l-416.9 418.517l81.1836 81.4834l498.116 -500l-498.116 -499.983l-81.1836 81.5166z" />
    <glyph glyph-name="interaction-double-up" unicode="&#xf07a;" 
d="M515.017 637.616l-418.533 -416.916l-81.4834 81.1836l500.017 498.116l499.983 -498.116l-81.5166 -81.1836zM515.017 216.917l-418.533 -416.917l-81.4834 81.1836l500.017 498.116l499.983 -498.116l-81.5166 -81.1836z" />
    <glyph glyph-name="interaction-down-circle" unicode="&#xf07b;" 
d="M515 800c276.134 0 500 -223.866 500 -500s-223.866 -500 -500 -500s-500 223.866 -500 500s223.866 500 500 500zM515 -150c248.517 0 450 201.45 450 450c0 248.533 -201.483 450 -450 450c-248.533 0 -450 -201.467 -450 -450c0 -248.517 201.467 -450 450 -450z
M515 191.583l246.934 245.983l48.083 -47.8994l-295.017 -293.9l-295.017 293.9l48.0996 47.8994z" />
    <glyph glyph-name="interaction-down" unicode="&#xf07c;" 
d="M514.983 172.75l418.533 416.9l81.4834 -81.1836l-500.017 -498.117l-499.983 498.117l81.5166 81.1836z" />
    <glyph glyph-name="interaction-left-circle" unicode="&#xf07d;" 
d="M515 800c276.134 0 500 -223.866 500 -500s-223.866 -500 -500 -500s-500 223.866 -500 500s223.866 500 500 500zM515 -150c248.517 0 450 201.45 450 450c0 248.533 -201.483 450 -450 450c-248.533 0 -450 -201.467 -450 -450c0 -248.517 201.467 -450 450 -450z
M652.566 546.95l-245.983 -246.95l245.983 -246.9l-47.8994 -48.1162l-293.9 295.017l293.9 295.033z" />
    <glyph glyph-name="interaction-left" unicode="&#xf07e;" horiz-adv-x="609" 
d="M177.367 300.017l416.934 -418.533l-81.1836 -81.4834l-498.117 500.017l498.117 499.983l81.1836 -81.5166z" />
    <glyph glyph-name="interaction-right-circle" unicode="&#xf07f;" 
d="M515 800c276.134 0 500 -223.866 500 -500s-223.866 -500 -500 -500s-500 223.866 -500 500s223.866 500 500 500zM515 -150c248.517 0 450 201.45 450 450c0 248.533 -201.483 450 -450 450c-248.533 0 -450 -201.467 -450 -450c0 -248.517 201.467 -450 450 -450z
M377.434 53.0664l245.983 246.934l-245.983 246.9l47.8994 48.1162l293.9 -295.017l-293.9 -295.017z" />
    <glyph glyph-name="interaction-right" unicode="&#xf080;" horiz-adv-x="609" 
d="M431.934 299.983l-416.934 418.533l81.1836 81.4834l498.117 -500.017l-498.117 -499.983l-81.1836 81.5166z" />
    <glyph glyph-name="interaction-up-circle" unicode="&#xf081;" 
d="M515 800c276.134 0 500 -223.866 500 -500s-223.866 -500 -500 -500s-500 223.866 -500 500s223.866 500 500 500zM515 -150c248.517 0 450 201.45 450 450c0 248.533 -201.483 450 -450 450c-248.533 0 -450 -201.467 -450 -450c0 -248.517 201.467 -450 450 -450z
M761.934 162.434l-246.934 245.983l-246.9 -245.983l-48.1162 47.8994l295.017 293.9l295.017 -293.9z" />
    <glyph glyph-name="interaction-up" unicode="&#xf082;" 
d="M515.017 427.267l-418.533 -416.917l-81.4834 81.1836l500.017 498.117l499.983 -498.117l-81.5166 -81.1836z" />
    <glyph glyph-name="issues-alt" unicode="&#xf083;" 
d="M515 800c276.134 0 500 -223.866 500 -500s-223.866 -500 -500 -500s-500 223.866 -500 500s223.866 500 500 500zM515 -116.667c230.116 0 416.667 186.517 416.667 416.667c0 230.116 -186.551 416.667 -416.667 416.667s-416.667 -186.551 -416.667 -416.667
s186.551 -416.667 416.667 -416.667zM444.316 553.066h141.384l-47.6504 -340.733h-45.666zM458.134 102.767c0 10.7168 1.48242 19.6836 4.46582 26.8838c2.9668 7.16602 7.0166 12.916 12.1504 17.2666c5.13379 4.33301 11.2334 7.39941 18.2998 9.25
c7.08398 1.81641 14.6006 2.75 22.6006 2.75c7.75 0 15.1162 -0.933594 22.0996 -2.75c6.9668 -1.83398 13.0664 -4.90039 18.3164 -9.25c5.25 -4.35059 9.40039 -10.1006 12.5 -17.2666c3.11719 -7.2168 4.63379 -16.1836 4.63379 -26.8838
c0 -10.5166 -1.5332 -19.3164 -4.63379 -26.3662c-3.09961 -7.08398 -7.25 -12.8174 -12.5 -17.1172c-5.2666 -4.36621 -11.3496 -7.5166 -18.3164 -9.41699c-6.9834 -1.96582 -14.333 -2.91602 -22.0996 -2.91602c-8 0 -15.5342 0.950195 -22.6006 2.91602
c-7.06641 1.91699 -13.1836 5.06738 -18.2998 9.41699c-5.13379 4.31641 -9.2002 10.0498 -12.1504 17.1172c-2.96582 7.0498 -4.46582 15.8496 -4.46582 26.3662z" />
    <glyph glyph-name="issues-alt2" unicode="&#xf084;" 
d="M515 800c276.134 0 500 -223.866 500 -500s-223.866 -500 -500 -500s-500 223.866 -500 500s223.866 500 500 500zM515 -116.667c230.116 0 416.667 186.517 416.667 416.667c0 230.116 -186.551 416.667 -416.667 416.667s-416.667 -186.551 -416.667 -416.667
s186.551 -416.667 416.667 -416.667zM329.233 348.2l122.467 -122.851l249.934 245.483l46.3496 -44.9834l-298.217 -296.683l-167.75 172.316z" />
    <glyph glyph-name="issues-alt3" unicode="&#xf085;" 
d="M656.786 -141.277l299.526 299.509c78.3115 78.292 78.3096 205.26 0.000976562 283.568l-299.513 299.496c-78.2969 78.2969 -205.27 78.293 -283.579 0.00390625l-299.5 -299.5c-78.2949 -78.3164 -78.2969 -205.27 0 -283.567l299.478 -299.51
c78.333 -78.3125 205.288 -78.3193 283.587 0zM597.858 -82.3555c-45.7578 -45.7695 -119.941 -45.7764 -165.729 0l-299.481 299.514c-45.7588 45.7588 -45.7598 119.944 0 165.716l299.492 299.492c45.7783 45.7666 119.978 45.7627 165.737 0.00292969l299.511 -299.495
c45.7793 -45.7793 45.7773 -119.951 0.000976562 -165.715zM329.251 348.217l122.467 -122.867l249.934 245.483l46.3496 -44.9834l-298.217 -296.683l-167.75 172.316z" />
    <glyph glyph-name="issues-alt4" unicode="&#xf086;" 
d="M534.151 556.4c31.4326 0 32.8994 -19.0342 31.4326 -54.1338l-13.1494 -250.967c-1.4668 -25.583 -7.31738 -46.8164 -37.3174 -46.8164s-35.8496 21.2168 -37.3164 46.8164l-13.167 250.967c-2.19922 35.0996 0.733398 54.1338 32.2002 54.1338h37.3174z
M524.617 146.033c27.8174 0 40.9668 -13.8994 40.9668 -41.7002v-19.0498c0 -27.7998 -13.1494 -41.6836 -40.9668 -41.6836h-19.0166c-27.7998 0 -40.9668 13.8838 -40.9668 41.6836v19.0498c0 27.8008 13.167 41.7002 40.9668 41.7002h19.0166zM656.8 -141.281
l299.497 299.497c78.2969 78.3184 78.2939 205.27 0.00390625 283.58l-299.499 299.5c-78.3184 78.2969 -205.27 78.2939 -283.58 0.00390625l-299.5 -299.5c-78.2969 -78.3174 -78.2939 -205.27 -0.00390625 -283.58l299.5 -299.499
c78.3174 -78.2969 205.271 -78.292 283.582 -0.00195312zM597.878 -82.3516c-45.7783 -45.7656 -119.964 -45.7607 -165.734 -0.00195312l-299.492 299.491c-45.7656 45.7783 -45.7627 119.966 -0.00390625 165.736l299.492 299.492
c45.7773 45.7656 119.965 45.7627 165.736 0.00390625l299.491 -299.492c45.7656 -45.7773 45.7627 -119.965 0.00390625 -165.736z" />
    <glyph glyph-name="issues-alt5" unicode="&#xf087;" 
d="M992.167 783.566c27.7334 -24.2002 30.5996 -66.3164 6.41602 -94.0664l-430.866 -517.934c-0.367188 -0.432617 -0.600586 -0.932617 -0.966797 -1.34961c-12.1338 -13.917 -28.7666 -21.5664 -45.833 -22.667c-17.0508 -1.2002 -34.5674 4.13379 -48.4502 16.25
c-0.367188 0.316406 -0.617188 0.716797 -0.983398 1.0332l-182.1 158.834c-27.7334 24.2334 -30.6172 66.3496 -6.41699 94.083s66.3164 30.6162 94.0664 6.41699l132.934 -115.967l388.116 468.95c24.2002 27.75 66.3174 30.6162 94.084 6.41602zM973.333 382.983
c23.0166 0 41.667 -18.6504 41.667 -41.667v-41.3164v-15.6338v-317.699c0 -92.0508 -74.6338 -166.667 -166.667 -166.667h-666.666c-92.0508 0 -166.667 74.6162 -166.667 166.667v666.666c0 92.0332 74.6162 166.667 166.667 166.667h317.366h15.9668h41
c23.0166 0 41.667 -18.6504 41.667 -41.667s-18.6504 -41.666 -41.667 -41.666h-56.9668h-0.0830078h-267.283c-73.6338 0 -133.334 -59.6836 -133.334 -133.334v-566.666c0 -73.6338 59.7002 -133.334 133.334 -133.334h566.666c73.6504 0 133.334 59.7002 133.334 133.334
v267.699v15.6338v41.3164c0 23.0166 18.6494 41.667 41.666 41.667z" />
    <glyph glyph-name="issues" unicode="&#xf088;" 
d="M515 800c276.134 0 500 -223.866 500 -500s-223.866 -500 -500 -500s-500 223.866 -500 500s223.866 500 500 500zM515 -116.667c230.116 0 416.667 186.517 416.667 416.667c0 230.116 -186.551 416.667 -416.667 416.667s-416.667 -186.551 -416.667 -416.667
s186.551 -416.667 416.667 -416.667zM611.65 74.0498c8.9834 2.5 15.5 4.7002 19.4658 6.65039l-7.81641 -31.9668c-23.4668 -9.2334 -42.1494 -16.3164 -56.1162 -21.1338c-13.9834 -4.86621 -30.2002 -7.2998 -48.6836 -7.2998
c-28.4004 0 -50.4834 6.91699 -66.2334 20.7832c-15.7334 13.834 -23.5996 31.4502 -23.5996 52.7334c0 8.2832 0.583008 16.7002 1.75 25.3838c1.18262 8.66602 3.09961 18.3994 5.69922 29.2998l29.3008 103.733c2.63281 9.93359 4.84961 19.3496 6.59961 28.2334
c1.7832 8.88281 2.68359 17 2.68359 24.3164c0 13.2666 -2.7334 22.5 -8.2002 27.7002c-5.4502 5.2168 -15.8662 7.81641 -31.333 7.81641c-7.58398 0 -15.3506 -1.16602 -23.3008 -3.5498c-7.96582 -2.33301 -14.7998 -4.61621 -20.4824 -6.75l7.81641 31.9502
c19.2168 7.84961 37.583 14.5332 55.1328 20.083c17.5508 5.56641 34.1504 8.35059 49.8008 8.35059c28.1992 0 49.9492 -6.83398 65.2832 -20.4336c15.2998 -13.6504 22.916 -31.3506 22.916 -53.1338c0 -4.5 -0.533203 -12.4326 -1.63281 -23.7998
c-1.0498 -11.4004 -3 -21.8164 -5.83398 -31.25l-29.1992 -103.366c-2.41699 -8.30078 -4.56738 -17.75 -6.41699 -28.4336c-1.91699 -10.6172 -2.86621 -18.7002 -2.86621 -24.1172c0 -13.7832 3.09961 -23.1162 9.25 -28.083c6.14941 -5 16.7666 -7.4834 31.8994 -7.4834
c7.10059 0 15.1338 1.2998 24.1172 3.7666zM618.184 560.517c13.6494 -12.7832 20.4502 -28.2002 20.4502 -46.167c0 -18.0332 -6.85059 -33.3662 -20.4502 -46.0332c-13.6338 -12.666 -30.0166 -19 -49.1836 -19s-35.6338 6.33398 -49.3838 19
c-13.7324 12.7002 -20.5996 28 -20.5996 46.0332c0 17.9834 6.86719 33.3672 20.5996 46.167c13.7334 12.7832 30.2168 19.1836 49.3838 19.1836s35.5498 -6.38379 49.1836 -19.1836z" />
    <glyph glyph-name="key" unicode="&#xf089;" 
d="M842.309 800l172.684 -0.0332031l-0.416992 -230.134l-153.583 0.25l-0.233398 -148.166l-156.05 -0.166992l-0.100586 -178.717l-67.3164 -64.0332c28.1338 -100.483 1.0498 -211.967 -81.7666 -290.783c-123.649 -117.65 -324.133 -117.65 -447.8 0
c-123.634 117.649 -123.634 308.366 0 426.017c82.8496 78.7998 200.1 104.55 305.667 77.7666zM325.525 -37.917c38.7168 36.8174 38.7002 96.5166 0.0166016 133.334c-38.6836 36.8164 -101.45 36.8164 -140.149 0c-38.667 -36.8174 -38.667 -96.4834 0 -133.301
c38.7158 -36.7832 101.466 -36.8164 140.133 -0.0332031z" />
    <glyph glyph-name="lock-closed" unicode="&#xf08a;" horiz-adv-x="738" 
d="M722.867 443.116c0 -24.6992 0 -72.1162 0.0166016 -72.1162v-571h-707.884v571v72.1162c0 197.101 158.45 356.884 353.934 356.884s353.934 -159.8 353.934 -356.884zM581.283 371.467c0 0 0 40.1162 0.0166016 71.3662c0 118.283 -95.0664 214.134 -212.366 214.134
s-212.366 -95.8506 -212.366 -214.134v-71.3662h424.716z" />
    <glyph glyph-name="lock-open" unicode="&#xf08b;" horiz-adv-x="742" 
d="M157.417 371.45h569.666v-571.45h-712.083v570.983v72.1504c0 197.083 159.383 356.866 356.017 356.866c98.4502 0 187.667 -40.0996 252.116 -104.934l-100.85 -101.083c-38.667 38.8662 -92.167 62.9502 -151.267 62.9502c-117.983 0 -213.6 -95.8506 -213.6 -214.134
v-71.3496z" />
    <glyph glyph-name="mercurial" unicode="&#xf08c;" 
d="M396.217 742.8c138.45 93.6006 493.483 55.7666 591.85 -278.75c136.667 -465.033 -284.883 -714.816 -403.267 -637.133c-118.383 77.6328 -6.0332 141.333 16.0498 300.616c22.0674 159.3 -188.583 97.5664 -294.916 229
c-127.733 157.851 -48.167 292.7 90.2832 386.267zM119.316 448.116c57.6338 0 104.334 -46.3164 104.334 -103.533c0 -57.1826 -46.7168 -103.533 -104.334 -103.533c-57.6162 0 -104.316 46.3506 -104.316 103.533c0 57.2002 46.7002 103.533 104.316 103.533z
M298.884 167.384c85.8662 0 155.466 -69.1006 155.466 -154.317s-69.5996 -154.316 -155.466 -154.316c-85.8672 0 -155.483 69.0996 -155.483 154.316c0 85.2002 69.6162 154.317 155.483 154.317z" />
    <glyph glyph-name="message-outline" unicode="&#xf08d;" 
d="M15 633.333h1000v-666.666h-1000v666.666zM931.667 50v500h-833.334v-500h833.334zM515 266.667l-416.667 283.333h833.334z" />
    <glyph glyph-name="message" unicode="&#xf08e;" 
d="M16.2002 560.833c0 0 27.3496 -12.1328 52.2168 -30.7998c24.833 -18.667 446.583 -333.5 446.583 -333.5s413.566 308.95 440.116 328.684c38.8672 28.9336 58.6836 35.6494 58.6836 35.6494l1.2002 -622.833h-1000zM515 305.6c0 0 -392.8 293.617 -416.667 311.434
c-23.8164 17.8164 -48.333 44.9336 -48.333 44.9336h930.017s-21 -24.7666 -48.833 -45.3164c-27.8672 -20.5508 -416.184 -311.051 -416.184 -311.051z" />
    <glyph glyph-name="milestone" unicode="&#xf08f;" horiz-adv-x="887" 
d="M823.934 464.066c0 0 26.333 5.58398 47.9834 14.4834c0 -35.7168 -14.9336 -72.9834 -19.4004 -80.7998c-62.083 -112.5 -222.333 -274.116 -405.366 -186.384c-145.983 70.084 -204.917 64.2676 -260.717 52c-2 -0.432617 -3.56641 -0.666016 -5.35059 -1.11621
c-6.91602 -1.33301 -33.916 -11.3662 -59.1494 -1.7832v438.85c0 34.6006 31.917 70.3174 74.5498 78.1338c87.7168 16.083 237.717 10.7168 330.583 -165.834c86.6006 -164.283 216.95 -160.716 296.867 -147.55zM68.583 800c9.81738 0 17.8506 -8.0332 17.8506 -17.8496
v-964.301c0 -9.81641 -8.0332 -17.8496 -17.8506 -17.8496h-35.7158c-9.83398 0 -17.8672 8.0332 -17.8672 17.8662v964.284c0 9.81641 8.0332 17.8496 17.8672 17.8496h35.7158z" />
    <glyph glyph-name="overview" unicode="&#xf090;" 
d="M15 -108.9v119.667h1000v-119.667h-1000zM115.667 70.6504v279.233h120.8v-279.233h-120.8zM337.15 70.6338v478.683h120.8v-478.683h-120.8zM558.616 70.6338v359.033h120.801v-359.033h-120.801zM780.066 70.6504v638.25h120.8v-638.25h-120.8z" />
    <glyph glyph-name="page-text" unicode="&#xf091;" horiz-adv-x="780" 
d="M234.434 800v-218.483h-219.434zM309.033 800h456.384v-1000h-750.417v706.95h294.033v293.05zM468.533 -58.333l0.0166016 75h-326.683v-75h326.666zM638.517 105h0.0332031v75h-496.683v-75h496.649zM638.517 278.333h0.0332031v75h-496.683v-75h496.649z" />
    <glyph glyph-name="page" unicode="&#xf092;" horiz-adv-x="780" 
d="M234.434 581.55h-219.434l219.434 218.45v-218.45zM309.033 800h456.4v-1000h-750.434v706.95h294.033v293.05z" />
    <glyph glyph-name="pirate" unicode="&#xf093;" horiz-adv-x="831" 
d="M620.033 147.434c117.384 -70.5498 196.284 -199.533 196.284 -347.434h-801.284c0 147.9 78.9004 276.884 196.317 347.384c56.8994 -43.3008 127.55 -88.9502 204.333 -88.9502c76.8164 0 147.384 45.6494 204.35 89zM393.217 617.684
c2.43359 4.34961 0.983398 9.75 -3.08301 12.4502h51.1494c-4.14941 -2.7002 -5.56641 -8.10059 -3.13281 -12.4668c0.166992 -0.283203 0.382812 -0.450195 0.549805 -0.683594l-23.0332 -13.083l-23.0166 13.0996c0.183594 0.25 0.433594 0.400391 0.566406 0.683594z
M816.317 535.934v0.0166016h-0.0166016v-127.9h-107.717c-17.8506 -153.733 -142 -320.217 -292.917 -320.217c-150.967 0 -275.217 166.25 -293 320.2h-107.667v127.9s90.334 -33.0674 187.817 136.717c97.4834 169.8 328.183 169.8 425.649 0
c97.4834 -169.801 187.851 -136.717 187.851 -136.717zM415.667 745.384c-27.333 0 -49.5 -22.3838 -49.5332 -50.0176c0 -16.8994 8.39941 -31.7998 21.1328 -40.8496v-23.25c-4 0.983398 -8.2998 -0.583008 -10.4326 -4.38281
c-1.2168 -2.2168 -1.41699 -4.7002 -0.850586 -6.9668c-2.2334 -0.683594 -4.2334 -2.18359 -5.4502 -4.40039c-2.5332 -4.5332 -0.932617 -10.3164 3.58398 -12.8662c4.5332 -2.53418 10.2666 -0.916992 12.7666 3.63281
c0.183594 0.266602 0.183594 0.566406 0.283203 0.883789l17.1338 -9.7334l-17.1338 -9.7002c-0.0996094 0.266602 -0.0996094 0.549805 -0.283203 0.849609c-2.56641 4.56738 -8.2666 6.18359 -12.7666 3.63379c-4.5332 -2.56641 -6.11719 -8.33301 -3.58398 -12.8838
c1.2168 -2.19922 3.2168 -3.68262 5.4502 -4.38281c-0.566406 -2.25 -0.366211 -4.7666 0.850586 -6.9668c2.56641 -4.56641 8.2666 -6.16699 12.7832 -3.61719c4.5332 2.53418 6.11621 8.33398 3.58301 12.8672c-0.166992 0.283203 -0.382812 0.433594 -0.566406 0.683594
l23.0332 13.083l23.0166 -13.0332c-0.200195 -0.266602 -0.416992 -0.416992 -0.616211 -0.683594c-2.5 -4.5498 -0.883789 -10.3164 3.61621 -12.8828c4.5332 -2.56738 10.2666 -0.933594 12.7666 3.61621c1.25 2.2002 1.4668 4.7168 0.916992 6.9668
c2.18359 0.683594 4.2002 2.18359 5.43359 4.40039c2.46582 4.5332 0.916016 10.2832 -3.58398 12.8662c-4.5332 2.5498 -10.2666 0.916992 -12.7666 -3.63379c-0.200195 -0.266602 -0.200195 -0.566406 -0.333008 -0.849609l-17.1172 9.7002l17.1172 9.7334
c0.132812 -0.316406 0.132812 -0.617188 0.333008 -0.883789c2.5166 -4.56641 8.2168 -6.18262 12.7666 -3.63281c4.5332 2.5498 6.11719 8.31641 3.58398 12.8662c-1.2334 2.2168 -3.25 3.68359 -5.43359 4.40039c0.549805 2.25 0.283203 4.7168 -0.916992 6.9668
c-2.11621 3.81641 -6.4502 5.41602 -10.417 4.38281v23.2666c12.7334 9.0498 21.1338 23.9336 21.1338 40.8506c0 27.583 -22.167 49.9668 -49.5 49.9668zM243.117 294.667c38.0498 0 68.8496 31.0996 68.8496 69.5c0 38.3828 -30.7998 69.4668 -68.8496 69.4668
c-38 0 -68.8164 -31.084 -68.8164 -69.4668c0 -38.4004 30.8164 -69.5 68.8164 -69.5zM415.667 255.667c24.1504 0 43.7168 19.75 43.7168 44.0996c0 24.3672 -19.5664 4.7832 -43.7168 4.7832c-24.1338 0 -43.7002 19.584 -43.7002 -4.7832
c0 -24.333 19.5664 -44.0996 43.7002 -44.0996zM588.233 294.667c38.0166 0 68.7998 31.1162 68.8506 69.5c0 38.3828 -30.834 69.4668 -68.8506 69.4668s-68.8828 -31.084 -68.8828 -69.4668c0 -38.3838 30.8662 -69.5 68.8828 -69.5zM393.667 692.333
c7.75 0 14.0332 -6.36621 14.0332 -14.2168c0 -7.83301 -6.2832 -14.1826 -14.0332 -14.1826c-7.7832 0 -14.0664 6.34961 -14.0664 14.1826c0.0166016 7.85059 6.2832 14.2168 14.0664 14.2168zM437.634 692.333c7.7832 0 14.0996 -6.36621 14.0996 -14.2168
c0 -7.83301 -6.31641 -14.1826 -14.0996 -14.1826c-7.75 0 -14.0166 6.34961 -14.0166 14.1826c0 7.85059 6.2832 14.2168 14.0166 14.2168z" />
    <glyph glyph-name="preview" unicode="&#xf094;" 
d="M515 584.8c220.5 0 384.366 -157.066 500 -287.916c-112.95 -111.733 -276.983 -281.684 -500 -281.684c-223.217 0 -349.583 134.1 -500 284.8c174.733 176.233 317.184 284.8 500 284.8zM515 96.8496c110.267 0 200 91 200 203.15
c0 111.917 -89.7334 203.167 -200 203.167s-200.017 -91 -200.017 -203.15c0 -111.917 89.75 -203.167 200.017 -203.167zM515 371.233c0 -39.417 31.9336 -71.2334 71.6504 -71.2334c16.7334 0 31.9326 5.7334 44.1992 15.3496
c0.466797 -5.11621 0.883789 -10.2158 0.883789 -15.333c0 -65.4502 -52.4336 -118.633 -116.733 -118.633s-116.733 53.1992 -116.733 118.633c0 65.4502 52.4502 118.617 116.733 118.617c5.7666 0 11.4004 -0.416992 16.9668 -1.31738
c-10.4502 -12.4502 -16.9668 -28.5 -16.9668 -46.083z" />
    <glyph glyph-name="project-outline" unicode="&#xf095;" 
d="M1015 253.5v-182.184h-439.167v182.184h439.167zM575.833 -200v182.233h439.167v-182.233h-439.167zM482.9 352.884v-552.884h-56.1172h-344.55h-59.9336h-7.2998v924.884v75.1162h67.2334h800.6h67.2168v-75.1162v-305.601v-66.3994h-467.149zM876.167 429.283v295.601
h-780.601v-851.851h307.884v556.25h472.717z" />
    <glyph glyph-name="project" unicode="&#xf096;" 
d="M482.5 355.467v-555.467h-467.5v1000h935v-444.533h-467.5zM572.116 71.917v182.55h442.884v-182.55h-442.884zM572.116 -200v182.6h442.884v-182.6h-442.884z" />
    <glyph glyph-name="pull" unicode="&#xf097;" 
d="M800.717 338.45h214.283l-500 -538.45l-500 538.45h214.283v230.783h571.434v-230.783zM800.717 646.167h-571.434v153.833h571.417v-153.833h0.0166016z" />
    <glyph glyph-name="push" unicode="&#xf098;" 
d="M1015 261.517h-214.283v-230.717h-571.434v230.717h-214.283l500 538.483zM800.717 -200h-571.434v153.833h571.417v-153.833h0.0166016z" />
    <glyph glyph-name="quit" unicode="&#xf099;" 
d="M705.65 762.167c181.517 -75 309.35 -253.533 309.35 -462.167c0 -276.134 -223.866 -500 -500 -500s-500 223.866 -500 500c0 208.634 127.8 387.167 309.283 462.167v-168.134c-96.2168 -62.5332 -159.967 -170.75 -159.967 -294.033
c0 -193.717 156.983 -350.667 350.65 -350.667c193.717 0 350.667 157 350.667 350.667c0 123.3 -63.8008 231.533 -159.983 294.033v168.134zM438.684 800h152.633v-500h-152.633v500z" />
    <glyph glyph-name="refresh" unicode="&#xf09a;" 
d="M1015 300c0 -159.316 -74.6504 -301.033 -190.75 -392.55l107.45 -107.45h-333.351v333.333l119.25 -119.233c89.5166 63.4668 148.067 167.817 148.067 285.9c0 125.533 -66.167 235.35 -165.301 297.283l107.434 107.434
c125.351 -90.8506 207.2 -238.05 207.2 -404.717zM206.033 692.316l-107.7 107.684h333.334v-333.333l-118.684 118.717c-89.6172 -63.4834 -148.684 -167.2 -148.684 -285.367c0 -132.333 73.3164 -247.483 181.533 -307.116l-108.583 -108.584
c-133.967 89.667 -222.25 242.351 -222.25 415.684c0 159.366 74.917 300.783 191.033 392.316z" />
    <glyph glyph-name="remove-circle" unicode="&#xf09b;" 
d="M515 800c276.134 0 500 -223.866 500 -500s-223.866 -500 -500 -500s-500 223.866 -500 500s223.866 500 500 500zM515 -150c248.517 0 450 201.45 450 450c0 248.533 -201.483 450 -450 450c-248.533 0 -450 -201.467 -450 -450c0 -248.517 201.467 -450 450 -450z
M735.053 481.223l-38.8564 38.8223l-181.196 -181.213l-181.218 181.217l-38.8311 -38.8311l181.217 -181.218l-181.213 -181.196l38.8223 -38.8564l181.223 181.205l181.201 -181.201l38.8477 38.8477l-181.201 181.201z" />
    <glyph glyph-name="remove-thin" unicode="&#xf09c;" 
d="M1014.6 752.667l-452.666 -452.667l452.666 -452.667l-47.1328 -47.1328l-452.667 452.666l-452.667 -452.666l-47.1328 47.1328l452.666 452.667l-452.666 452.667l47.1328 47.1328l452.667 -452.666l452.667 452.666z" />
    <glyph glyph-name="remove" unicode="&#xf09d;" 
d="M157.116 797.467l355.351 -359.483l368.066 362.017l134.467 -131.634l-365.533 -369.649l363.017 -356.9l-137.1 -136.7l-362.934 359.467l-362.917 -364.583l-134.533 134.2l365.5 364.5l-360.417 362.066z" />
    <glyph glyph-name="repository-outline" unicode="&#xf09e;" horiz-adv-x="920" 
d="M460.021 263.98c127.755 0 214.211 8.03711 334.212 49.1348v-324.6c-11.8203 -16.3281 -146.103 -77.3008 -334.212 -77.3008c-176.305 0 -315.572 51.5557 -334.212 77.3027v324.606c89.7979 -30.75 207.161 -49.1436 334.212 -49.1436zM460.021 374.789
c-157.936 0 -291.871 28.6562 -358.645 73.6729l-86.376 58.2324v-521.001c0 -147.211 253.157 -185.287 445.021 -185.287c191.881 0 445.021 38.0781 445.021 185.287v521.035l-86.3887 -58.2754c-66.7109 -45.001 -200.66 -73.6641 -358.632 -73.6641zM460.021 799.626
c-193.188 0 -434.213 -39.543 -434.213 -185.319c0 -145.757 241.026 -185.255 434.213 -185.255c193.191 0 434.196 39.5049 434.196 185.271c0 145.762 -241.01 185.303 -434.196 185.303zM460.021 688.817c176.804 0 303.205 -53.5176 321.984 -74.4941
c-27.7559 -31 -155.915 -74.4629 -321.984 -74.4629c-176.82 0 -303.239 53.5059 -321.999 74.4541c27.7754 31.0273 155.947 74.5029 321.999 74.5029z" />
    <glyph glyph-name="repository" unicode="&#xf09f;" horiz-adv-x="930" 
d="M465 413.517c188.517 0 354.066 31.3672 450 96.0332v-559.533c0 -82.9004 -208.4 -150.017 -450 -150.017c-241.616 0 -450 67.1162 -450 150.033v559.533c95.917 -64.7002 261.483 -96.0498 450 -96.0498zM465 800c241.6 0 437.5 -67.1504 437.5 -150
c0 -82.8838 -195.85 -150 -437.5 -150s-437.5 67.1504 -437.5 150s195.884 150 437.5 150z" />
    <glyph glyph-name="search" unicode="&#xf0a0;" 
d="M904.233 689.233c147.7 -147.717 147.7 -387.316 -0.0166016 -535.083c-121.384 -121.317 -304.033 -141.534 -447.566 -63.4004l-290.767 -290.75l-150.884 150.917l290.75 290.883c-78.1338 143.367 -57.9502 326.05 63.4336 447.434
c147.717 147.7 387.35 147.7 535.05 0zM816.1 242.184c99.0508 99.1826 99.0508 259.75 -0.0664062 358.85c-99.0166 98.9668 -259.633 98.9668 -358.75 0c-99.0498 -99.0996 -99.0664 -259.667 0.0664062 -358.85c99.0508 -98.9834 259.617 -98.9834 358.75 0z" />
    </font>
</defs>
</svg>
